<svg id="Layer_1" data-name="Layer 1" xmlns="http://www.w3.org/2000/svg" width="479.35" height="347.6" viewBox="0 0 479.35 347.6"><defs><style>.cls-1,.cls-5{fill:none;}.cls-1,.cls-2,.cls-5{stroke:#231f20;stroke-miterlimit:10;}.cls-2,.cls-4{fill:#231f20;}.cls-3{fill:#000100;}.cls-5{stroke-dasharray:4;}</style></defs><title>design_hierarchy</title><line class="cls-1" x1="180.11" y1="26.9" x2="217.11" y2="5.76"/><line class="cls-1" x1="217.11" y1="5.76" x2="343.18" y2="16.33"/><line class="cls-1" x1="180.11" y1="26.9" x2="306.19" y2="37.47"/><line class="cls-1" x1="306.19" y1="37.47" x2="343.18" y2="16.33"/><line class="cls-1" x1="180.11" y1="28.32" x2="306.19" y2="38.89"/><line class="cls-1" x1="180.11" y1="32.18" x2="306.19" y2="42.75"/><line class="cls-1" x1="180.11" y1="34.74" x2="306.19" y2="45.31"/><line class="cls-1" x1="306.19" y1="38.89" x2="343.18" y2="17.76"/><line class="cls-1" x1="306.19" y1="42.75" x2="343.18" y2="21.61"/><line class="cls-1" x1="306.19" y1="45.31" x2="343.18" y2="24.17"/><line class="cls-1" x1="343.18" y1="16.33" x2="343.18" y2="24.17"/><line class="cls-1" x1="306.19" y1="37.47" x2="306.19" y2="45.31"/><line class="cls-1" x1="180.11" y1="26.9" x2="180.11" y2="34.74"/><line class="cls-1" x1="180.11" y1="33.88" x2="306.19" y2="44.45"/><line class="cls-1" x1="306.19" y1="44.18" x2="343.18" y2="23.04"/><line class="cls-1" x1="180.11" y1="112.39" x2="217.11" y2="91.26"/><line class="cls-1" x1="217.11" y1="91.26" x2="281.13" y2="96.62"/><line class="cls-1" x1="180.11" y1="112.39" x2="249.12" y2="118.18"/><line class="cls-1" x1="306.19" y1="91.82" x2="343.18" y2="70.68"/><line class="cls-1" x1="180.11" y1="113.82" x2="306.19" y2="124.39"/><line class="cls-1" x1="180.11" y1="117.68" x2="306.19" y2="128.25"/><line class="cls-1" x1="180.11" y1="120.24" x2="249.12" y2="126.02"/><line class="cls-1" x1="306.19" y1="124.39" x2="343.18" y2="103.25"/><line class="cls-1" x1="306.19" y1="128.25" x2="343.18" y2="107.11"/><line class="cls-1" x1="306.19" y1="159.11" x2="343.18" y2="137.98"/><line class="cls-1" x1="343.18" y1="103.25" x2="343.18" y2="107.11"/><line class="cls-1" x1="306.19" y1="124.39" x2="306.19" y2="128.25"/><line class="cls-1" x1="180.11" y1="112.39" x2="180.11" y2="120.24"/><line class="cls-1" x1="180.11" y1="119.38" x2="249.12" y2="125.16"/><line class="cls-1" x1="306.19" y1="143.26" x2="343.18" y2="122.12"/><line class="cls-1" x1="321.12" y1="101.4" x2="343.18" y2="103.25"/><path class="cls-1" d="M313.62,119.48c0,14.57-25.07,26.36-56.05,26.36" transform="translate(-7.43 -27.66)"/><path class="cls-1" d="M350.61,98.34c0,26.25-41.62,47.49-93,47.49" transform="translate(-7.43 -27.66)"/><path class="cls-1" d="M256.55,145.84h1" transform="translate(-7.43 -27.66)"/><path class="cls-1" d="M313.62,170.92c.63-7.23-24.49-15.33-56.17-18.1" transform="translate(-7.43 -27.66)"/><path class="cls-1" d="M257.56,152.82h-1" transform="translate(-7.43 -27.66)"/><path class="cls-1" d="M313.62,186.77c1.35-15.41-24.18-30.22-57.07-33.09" transform="translate(-7.43 -27.66)"/><path class="cls-1" d="M313,182.08h0" transform="translate(-7.43 -27.66)"/><path class="cls-1" d="M350.6,149.78C349,145,344.43,142.3,340,140.67" transform="translate(-7.43 -27.66)"/><path class="cls-1" d="M350.56,165.76a29.44,29.44,0,0,0-6.12-12.55" transform="translate(-7.43 -27.66)"/><path class="cls-1" d="M313,122.28a156.79,156.79,0,0,1-24.47,2" transform="translate(-7.43 -27.66)"/><circle class="cls-1" cx="236.55" cy="216.55" r="18.68"/><circle class="cls-2" cx="236.54" cy="216.55" r="3.11"/><path class="cls-1" d="M305,277.07c0-7.84-26.72-14.18-59.73-14.18" transform="translate(-7.43 -27.66)"/><path class="cls-1" d="M277,243.86" transform="translate(-7.43 -27.66)"/><path class="cls-1" d="M267.63,209a18.69,18.69,0,0,1,18.87,32.26" transform="translate(-7.43 -27.66)"/><path class="cls-1" d="M338.09,258c0-4.66-7.52-7-10.93-8.18-9-3-18.59-4.28-28-5.11-5.65-.5-11.32-.77-17-.86" transform="translate(-7.43 -27.66)"/><line class="cls-1" x1="226.3" y1="200.89" x2="260.27" y2="181.4"/><line class="cls-1" x1="245.95" y1="232.7" x2="279.06" y2="213.63"/><line class="cls-1" x1="297.6" y1="249.41" x2="330.66" y2="230.38"/><path class="cls-3" d="M17.29,235.42v1.19h0a3.45,3.45,0,0,1,1.15-1.05,3.11,3.11,0,0,1,1.54-.37,3.55,3.55,0,0,1,1.52.32,2.14,2.14,0,0,1,1,1.14,3.75,3.75,0,0,1,1.06-1,2.82,2.82,0,0,1,1.59-.44,4.73,4.73,0,0,1,1.29.17,2.62,2.62,0,0,1,1,.54,2.51,2.51,0,0,1,.66,1,4,4,0,0,1,.24,1.45v5.88H26v-5q0-.44,0-.83a1.77,1.77,0,0,0-.19-.68,1.13,1.13,0,0,0-.45-.46,1.63,1.63,0,0,0-.81-.17,1.55,1.55,0,0,0-.82.2,1.42,1.42,0,0,0-.49.51,2,2,0,0,0-.24.71,5.48,5.48,0,0,0-.06.81v4.9H20.52v-4.93q0-.39,0-.77a2.17,2.17,0,0,0-.14-.71,1.09,1.09,0,0,0-.42-.52,1.61,1.61,0,0,0-.88-.2,1.81,1.81,0,0,0-.45.08,1.5,1.5,0,0,0-.54.29,1.69,1.69,0,0,0-.45.61,2.48,2.48,0,0,0-.19,1v5.1H15v-8.79Z" transform="translate(-7.43 -27.66)"/><path class="cls-3" d="M30.24,238.12a2.81,2.81,0,0,1,.43-1.41,2.9,2.9,0,0,1,1-.9,4.16,4.16,0,0,1,1.3-.48,7.44,7.44,0,0,1,1.45-.14,9.83,9.83,0,0,1,1.34.09,4.13,4.13,0,0,1,1.24.37,2.45,2.45,0,0,1,.92.76,2.12,2.12,0,0,1,.36,1.28v4.57a9.16,9.16,0,0,0,.07,1.14,2.05,2.05,0,0,0,.24.82H36.09a3.34,3.34,0,0,1-.11-.42,3.51,3.51,0,0,1-.06-.43,3.15,3.15,0,0,1-1.36.83,5.47,5.47,0,0,1-1.6.24,4.34,4.34,0,0,1-1.17-.15,2.69,2.69,0,0,1-1-.48,2.21,2.21,0,0,1-.64-.82,2.76,2.76,0,0,1-.23-1.17,2.56,2.56,0,0,1,.26-1.23,2.21,2.21,0,0,1,.68-.77,3.06,3.06,0,0,1,1-.43,10.56,10.56,0,0,1,1.08-.23q.54-.08,1.07-.14a6.42,6.42,0,0,0,.94-.15,1.63,1.63,0,0,0,.65-.3.65.65,0,0,0,.22-.57,1.28,1.28,0,0,0-.13-.62.94.94,0,0,0-.34-.36,1.34,1.34,0,0,0-.49-.17,4,4,0,0,0-.6,0,1.84,1.84,0,0,0-1.12.31,1.37,1.37,0,0,0-.48,1Zm5.58,1.79a1.08,1.08,0,0,1-.38.21,3.81,3.81,0,0,1-.49.13l-.55.08-.58.08a4.37,4.37,0,0,0-.54.14,1.59,1.59,0,0,0-.46.23,1.09,1.09,0,0,0-.31.37,1.17,1.17,0,0,0-.12.56,1.13,1.13,0,0,0,.12.54.91.91,0,0,0,.32.35,1.37,1.37,0,0,0,.48.18,3,3,0,0,0,.56.05,2.13,2.13,0,0,0,1.1-.24,1.59,1.59,0,0,0,.58-.57,1.82,1.82,0,0,0,.23-.67,4.71,4.71,0,0,0,0-.54Z" transform="translate(-7.43 -27.66)"/><path class="cls-3" d="M44.93,235.42V237H43.16v4.35a.82.82,0,0,0,1,1l.39,0,.36-.05v1.87a5.8,5.8,0,0,1-.68.07l-.73,0a7.07,7.07,0,0,1-1.06-.08,2.52,2.52,0,0,1-.88-.3,1.57,1.57,0,0,1-.6-.63,2.25,2.25,0,0,1-.22-1.07V237H39.28v-1.62h1.46v-2.63h2.41v2.63Z" transform="translate(-7.43 -27.66)"/><path class="cls-3" d="M48.67,242.1a2.48,2.48,0,0,0,2.82.16,1.52,1.52,0,0,0,.65-.77h2.13a4,4,0,0,1-1.56,2.26,4.61,4.61,0,0,1-2.55.68,5,5,0,0,1-1.87-.33,3.89,3.89,0,0,1-1.41-.94,4.24,4.24,0,0,1-.89-1.46,5.35,5.35,0,0,1-.31-1.87A5.13,5.13,0,0,1,46,238a4.25,4.25,0,0,1,2.34-2.45,4.55,4.55,0,0,1,1.83-.36,4.18,4.18,0,0,1,2,.43,3.91,3.91,0,0,1,1.37,1.17,4.8,4.8,0,0,1,.77,1.67,6.21,6.21,0,0,1,.17,2H48.07A2.44,2.44,0,0,0,48.67,242.1Zm2.73-4.62a1.7,1.7,0,0,0-1.32-.48,2.1,2.1,0,0,0-1,.2,1.84,1.84,0,0,0-.61.48,1.78,1.78,0,0,0-.32.61,2.73,2.73,0,0,0-.11.58H52A2.79,2.79,0,0,0,51.4,237.47Z" transform="translate(-7.43 -27.66)"/><path class="cls-3" d="M58.14,235.42V237h0a3,3,0,0,1,.46-.76,3,3,0,0,1,.66-.6,3.25,3.25,0,0,1,.8-.38,2.88,2.88,0,0,1,.88-.14,1.89,1.89,0,0,1,.53.08v2.24l-.41-.06-.46,0a2.57,2.57,0,0,0-1.12.22,1.94,1.94,0,0,0-.74.6,2.42,2.42,0,0,0-.4.89,4.85,4.85,0,0,0-.12,1.11v4H55.84v-8.79Z" transform="translate(-7.43 -27.66)"/><path class="cls-3" d="M62.52,234.06v-2h2.41v2Zm2.41,1.36v8.79H62.52v-8.79Z" transform="translate(-7.43 -27.66)"/><path class="cls-3" d="M66.74,238.12a2.81,2.81,0,0,1,.43-1.41,2.9,2.9,0,0,1,1-.9,4.16,4.16,0,0,1,1.3-.48,7.44,7.44,0,0,1,1.45-.14,9.83,9.83,0,0,1,1.34.09,4.13,4.13,0,0,1,1.24.37,2.45,2.45,0,0,1,.92.76,2.12,2.12,0,0,1,.36,1.28v4.57a9.16,9.16,0,0,0,.07,1.14,2.05,2.05,0,0,0,.24.82H72.58a3.34,3.34,0,0,1-.11-.42,3.51,3.51,0,0,1-.06-.43,3.15,3.15,0,0,1-1.36.83,5.47,5.47,0,0,1-1.6.24,4.34,4.34,0,0,1-1.17-.15,2.69,2.69,0,0,1-1-.48,2.21,2.21,0,0,1-.64-.82,2.76,2.76,0,0,1-.23-1.17,2.56,2.56,0,0,1,.26-1.23,2.21,2.21,0,0,1,.68-.77,3.06,3.06,0,0,1,1-.43,10.56,10.56,0,0,1,1.08-.23q.54-.08,1.07-.14a6.42,6.42,0,0,0,.94-.15,1.63,1.63,0,0,0,.65-.3.65.65,0,0,0,.22-.57,1.28,1.28,0,0,0-.13-.62.94.94,0,0,0-.34-.36,1.34,1.34,0,0,0-.49-.17,4,4,0,0,0-.6,0,1.84,1.84,0,0,0-1.12.31,1.37,1.37,0,0,0-.48,1Zm5.58,1.79a1.08,1.08,0,0,1-.38.21,3.81,3.81,0,0,1-.49.13l-.55.08-.58.08a4.37,4.37,0,0,0-.54.14,1.59,1.59,0,0,0-.46.23,1.09,1.09,0,0,0-.31.37,1.17,1.17,0,0,0-.12.56,1.13,1.13,0,0,0,.12.54.91.91,0,0,0,.32.35,1.37,1.37,0,0,0,.48.18,3,3,0,0,0,.56.05,2.13,2.13,0,0,0,1.1-.24A1.59,1.59,0,0,0,72,242a1.82,1.82,0,0,0,.23-.67,4.71,4.71,0,0,0,0-.54Z" transform="translate(-7.43 -27.66)"/><path class="cls-3" d="M79.08,232.07v12.14H76.66V232.07Z" transform="translate(-7.43 -27.66)"/><path class="cls-3" d="M91.95,243.08a2.49,2.49,0,0,1-1.11,1,3.7,3.7,0,0,1-1.56.31,3.76,3.76,0,0,1-1.73-.38,3.48,3.48,0,0,1-1.23-1,4.7,4.7,0,0,1-.73-1.5,6.31,6.31,0,0,1-.25-1.77,5.93,5.93,0,0,1,.25-1.71,4.43,4.43,0,0,1,.73-1.45,3.55,3.55,0,0,1,2.92-1.39,3.46,3.46,0,0,1,1.49.33,2.59,2.59,0,0,1,1.11,1h0v-4.42h2.41v12.14H92v-1.12Zm-.1-4.34a2.57,2.57,0,0,0-.35-.88,2,2,0,0,0-.64-.62,1.86,1.86,0,0,0-1-.24,2,2,0,0,0-1,.24,1.88,1.88,0,0,0-.65.63,2.79,2.79,0,0,0-.36.89,4.84,4.84,0,0,0-.11,1,4.47,4.47,0,0,0,.12,1,2.77,2.77,0,0,0,.38.91,2.12,2.12,0,0,0,.66.65,1.8,1.8,0,0,0,1,.25,1.91,1.91,0,0,0,1-.24,1.81,1.81,0,0,0,.64-.64,2.87,2.87,0,0,0,.34-.91,5.37,5.37,0,0,0,.1-1.05A5.26,5.26,0,0,0,91.85,238.74Z" transform="translate(-7.43 -27.66)"/><path class="cls-3" d="M98.68,242.1a2.48,2.48,0,0,0,2.82.16,1.52,1.52,0,0,0,.65-.77h2.13a4,4,0,0,1-1.56,2.26,4.61,4.61,0,0,1-2.55.68,5,5,0,0,1-1.87-.33,3.89,3.89,0,0,1-1.41-.94,4.24,4.24,0,0,1-.89-1.46,5.35,5.35,0,0,1-.31-1.87A5.13,5.13,0,0,1,96,238a4.25,4.25,0,0,1,2.34-2.45,4.55,4.55,0,0,1,1.83-.36,4.18,4.18,0,0,1,2,.43,3.91,3.91,0,0,1,1.37,1.17,4.8,4.8,0,0,1,.77,1.67,6.21,6.21,0,0,1,.17,2H98.08A2.44,2.44,0,0,0,98.68,242.1Zm2.73-4.62a1.7,1.7,0,0,0-1.32-.48,2.1,2.1,0,0,0-1,.2,1.84,1.84,0,0,0-.61.48,1.78,1.78,0,0,0-.32.61,2.73,2.73,0,0,0-.11.58H102A2.79,2.79,0,0,0,101.41,237.47Z" transform="translate(-7.43 -27.66)"/><path class="cls-3" d="M107.89,242a1.4,1.4,0,0,0,.42.46,1.78,1.78,0,0,0,.59.26,2.76,2.76,0,0,0,.69.08,2.55,2.55,0,0,0,.54-.06,1.83,1.83,0,0,0,.51-.19,1.16,1.16,0,0,0,.38-.34.89.89,0,0,0,.15-.54q0-.54-.72-.82a14.58,14.58,0,0,0-2-.54q-.53-.12-1-.28a3.5,3.5,0,0,1-.89-.42,2.06,2.06,0,0,1-.63-.66,1.88,1.88,0,0,1-.24-1,2.65,2.65,0,0,1,.33-1.39,2.43,2.43,0,0,1,.88-.86,3.83,3.83,0,0,1,1.22-.44,7.55,7.55,0,0,1,1.39-.13,7,7,0,0,1,1.39.14,3.66,3.66,0,0,1,1.2.46,2.74,2.74,0,0,1,.88.86,2.88,2.88,0,0,1,.42,1.35H111a1.06,1.06,0,0,0-.53-.94,2.4,2.4,0,0,0-1.12-.25l-.44,0a1.49,1.49,0,0,0-.43.11.9.9,0,0,0-.33.25.65.65,0,0,0-.14.43.66.66,0,0,0,.24.53,1.82,1.82,0,0,0,.62.33,7.81,7.81,0,0,0,.88.23l1,.22a10.18,10.18,0,0,1,1,.29,3.4,3.4,0,0,1,.89.45,2.19,2.19,0,0,1,.63.7,2,2,0,0,1,.24,1,2.67,2.67,0,0,1-1.26,2.4,3.71,3.71,0,0,1-1.28.5,7.46,7.46,0,0,1-1.47.14,7.31,7.31,0,0,1-1.5-.15,4,4,0,0,1-1.3-.51,2.9,2.9,0,0,1-.94-.94,3,3,0,0,1-.4-1.47h2.29A1.32,1.32,0,0,0,107.89,242Z" transform="translate(-7.43 -27.66)"/><path class="cls-3" d="M115.05,234.06v-2h2.41v2Zm2.41,1.36v8.79h-2.41v-8.79Z" transform="translate(-7.43 -27.66)"/><path class="cls-3" d="M127.67,244.85a3,3,0,0,1-.62,1.27,3.7,3.7,0,0,1-1.38,1,6,6,0,0,1-2.41.41,5.63,5.63,0,0,1-1.32-.16,4.18,4.18,0,0,1-1.22-.5,3,3,0,0,1-.92-.88,2.53,2.53,0,0,1-.42-1.28h2.4a1.38,1.38,0,0,0,.66.94,2.38,2.38,0,0,0,1.14.26,1.75,1.75,0,0,0,1.49-.61,2.4,2.4,0,0,0,.45-1.55v-1.16h0a2.39,2.39,0,0,1-1.11,1,3.6,3.6,0,0,1-1.52.33,3.84,3.84,0,0,1-1.7-.35,3.23,3.23,0,0,1-1.17-1,4,4,0,0,1-.67-1.41,6.69,6.69,0,0,1-.21-1.71,5.48,5.48,0,0,1,.25-1.64,4.28,4.28,0,0,1,.72-1.39,3.5,3.5,0,0,1,1.18-1,3.54,3.54,0,0,1,1.62-.36,3.4,3.4,0,0,1,1.52.32,2.63,2.63,0,0,1,1.1,1.09h0v-1.17h2.3v8.23A5.91,5.91,0,0,1,127.67,244.85Zm-3.31-2.92a1.87,1.87,0,0,0,.65-.54,2.41,2.41,0,0,0,.38-.77,3.21,3.21,0,0,0,.13-.91,5,5,0,0,0-.1-1,2.57,2.57,0,0,0-.34-.86,1.76,1.76,0,0,0-.63-.6,2,2,0,0,0-1-.22,1.77,1.77,0,0,0-.88.2,1.84,1.84,0,0,0-.61.55,2.33,2.33,0,0,0-.36.8,3.94,3.94,0,0,0-.11.94,4.82,4.82,0,0,0,.09.94,2.56,2.56,0,0,0,.32.84,1.89,1.89,0,0,0,.6.61,1.71,1.71,0,0,0,.94.24A1.91,1.91,0,0,0,124.37,241.93Z" transform="translate(-7.43 -27.66)"/><path class="cls-3" d="M132,235.42v1.22h.05a2.77,2.77,0,0,1,1.19-1.11,3.44,3.44,0,0,1,1.5-.35,4.1,4.1,0,0,1,1.59.26,2.36,2.36,0,0,1,1,.73,2.84,2.84,0,0,1,.5,1.14,7.1,7.1,0,0,1,.14,1.49v5.41h-2.41v-5a3.08,3.08,0,0,0-.34-1.62,1.32,1.32,0,0,0-1.21-.54,1.67,1.67,0,0,0-1.43.59,3.26,3.26,0,0,0-.44,1.93v4.61h-2.41v-8.79Z" transform="translate(-7.43 -27.66)"/><path class="cls-3" d="M11.9,337.44a1.69,1.69,0,0,0-1,.26,2.09,2.09,0,0,0-.64.68,2.94,2.94,0,0,0-.35.92,5,5,0,0,0-.1,1,4.78,4.78,0,0,0,.1,1,3,3,0,0,0,.33.89,1.9,1.9,0,0,0,.62.65,1.71,1.71,0,0,0,1,.25,1.77,1.77,0,0,0,1.33-.48,2.29,2.29,0,0,0,.59-1.3H16.1a4,4,0,0,1-1.36,2.67,4.39,4.39,0,0,1-2.87.92,4.82,4.82,0,0,1-1.81-.33,4,4,0,0,1-1.4-.93,4.2,4.2,0,0,1-.9-1.42,4.91,4.91,0,0,1-.32-1.81,5.85,5.85,0,0,1,.3-1.9A4.26,4.26,0,0,1,8.6,337,4,4,0,0,1,10,336a4.79,4.79,0,0,1,1.9-.36,5.52,5.52,0,0,1,1.5.2,4,4,0,0,1,1.29.62A3.21,3.21,0,0,1,16,338.95H13.69A1.62,1.62,0,0,0,11.9,337.44Z" transform="translate(-7.43 -27.66)"/><path class="cls-3" d="M19.87,332.51v4.57h.05A2.8,2.8,0,0,1,21.1,336a3.16,3.16,0,0,1,1.39-.35,4.1,4.1,0,0,1,1.59.26,2.36,2.36,0,0,1,1,.73,2.84,2.84,0,0,1,.5,1.14,7.1,7.1,0,0,1,.14,1.49v5.41H23.29v-5a3.08,3.08,0,0,0-.34-1.62,1.32,1.32,0,0,0-1.21-.54,1.67,1.67,0,0,0-1.43.59,3.26,3.26,0,0,0-.44,1.93v4.61H17.46V332.51Z" transform="translate(-7.43 -27.66)"/><path class="cls-3" d="M30.12,342.54a2.48,2.48,0,0,0,2.82.16,1.52,1.52,0,0,0,.65-.77h2.13a4,4,0,0,1-1.56,2.26,4.61,4.61,0,0,1-2.55.68,5,5,0,0,1-1.87-.33,3.89,3.89,0,0,1-1.41-.94,4.24,4.24,0,0,1-.89-1.46,5.35,5.35,0,0,1-.31-1.87,5.13,5.13,0,0,1,.32-1.84A4.25,4.25,0,0,1,29.78,336a4.55,4.55,0,0,1,1.83-.36,4.18,4.18,0,0,1,2,.43,3.91,3.91,0,0,1,1.37,1.17,4.8,4.8,0,0,1,.77,1.67,6.21,6.21,0,0,1,.17,2H29.53A2.44,2.44,0,0,0,30.12,342.54Zm2.73-4.62a1.7,1.7,0,0,0-1.32-.48,2.1,2.1,0,0,0-1,.2,1.84,1.84,0,0,0-.61.48,1.78,1.78,0,0,0-.32.61,2.73,2.73,0,0,0-.11.58h3.93A2.79,2.79,0,0,0,32.85,337.91Z" transform="translate(-7.43 -27.66)"/><path class="cls-3" d="M39.64,335.86V337h0A3.45,3.45,0,0,1,40.83,336a3.11,3.11,0,0,1,1.54-.37,3.55,3.55,0,0,1,1.52.32,2.14,2.14,0,0,1,1,1.14,3.75,3.75,0,0,1,1.06-1,2.82,2.82,0,0,1,1.59-.44,4.73,4.73,0,0,1,1.29.17,2.62,2.62,0,0,1,1,.54,2.51,2.51,0,0,1,.66,1,4,4,0,0,1,.24,1.45v5.88H48.38v-5q0-.44,0-.83a1.77,1.77,0,0,0-.19-.68,1.13,1.13,0,0,0-.45-.46,1.63,1.63,0,0,0-.81-.17,1.55,1.55,0,0,0-.82.2,1.42,1.42,0,0,0-.49.51,2,2,0,0,0-.24.71,5.48,5.48,0,0,0-.06.81v4.9H42.87v-4.93q0-.39,0-.77a2.17,2.17,0,0,0-.14-.71,1.09,1.09,0,0,0-.42-.52,1.61,1.61,0,0,0-.88-.2,1.81,1.81,0,0,0-.45.08,1.5,1.5,0,0,0-.54.29,1.69,1.69,0,0,0-.45.61,2.48,2.48,0,0,0-.19,1v5.1H37.37v-8.79Z" transform="translate(-7.43 -27.66)"/><path class="cls-3" d="M52.77,334.5v-2h2.41v2Zm2.41,1.36v8.79H52.77v-8.79Z" transform="translate(-7.43 -27.66)"/><path class="cls-3" d="M61.29,337.44a1.69,1.69,0,0,0-1,.26,2.09,2.09,0,0,0-.64.68,2.94,2.94,0,0,0-.35.92,5,5,0,0,0-.1,1,4.78,4.78,0,0,0,.1,1,3,3,0,0,0,.33.89,1.9,1.9,0,0,0,.62.65,1.71,1.71,0,0,0,1,.25,1.77,1.77,0,0,0,1.33-.48,2.29,2.29,0,0,0,.59-1.3h2.33a4,4,0,0,1-1.36,2.67,4.39,4.39,0,0,1-2.87.92,4.82,4.82,0,0,1-1.81-.33,4,4,0,0,1-1.4-.93,4.2,4.2,0,0,1-.9-1.42,4.91,4.91,0,0,1-.32-1.81,5.85,5.85,0,0,1,.3-1.9A4.26,4.26,0,0,1,58,337a4,4,0,0,1,1.41-1,4.79,4.79,0,0,1,1.9-.36,5.52,5.52,0,0,1,1.5.2,4,4,0,0,1,1.29.62,3.21,3.21,0,0,1,1.33,2.51H63.07A1.62,1.62,0,0,0,61.29,337.44Z" transform="translate(-7.43 -27.66)"/><path class="cls-3" d="M66.74,338.56a2.81,2.81,0,0,1,.43-1.41,2.9,2.9,0,0,1,1-.9,4.16,4.16,0,0,1,1.3-.48,7.44,7.44,0,0,1,1.45-.14,9.83,9.83,0,0,1,1.34.09,4.13,4.13,0,0,1,1.24.37,2.45,2.45,0,0,1,.92.76,2.12,2.12,0,0,1,.36,1.28v4.57a9.16,9.16,0,0,0,.07,1.14,2.05,2.05,0,0,0,.24.82H72.59a3.34,3.34,0,0,1-.11-.42,3.51,3.51,0,0,1-.06-.43,3.15,3.15,0,0,1-1.36.83,5.47,5.47,0,0,1-1.6.24,4.34,4.34,0,0,1-1.17-.15,2.69,2.69,0,0,1-1-.48,2.21,2.21,0,0,1-.64-.82,2.76,2.76,0,0,1-.23-1.17,2.56,2.56,0,0,1,.26-1.23,2.21,2.21,0,0,1,.68-.77,3.06,3.06,0,0,1,1-.43,10.56,10.56,0,0,1,1.08-.23q.54-.08,1.07-.14a6.42,6.42,0,0,0,.94-.15,1.63,1.63,0,0,0,.65-.3.65.65,0,0,0,.22-.57,1.28,1.28,0,0,0-.13-.62.94.94,0,0,0-.34-.36,1.34,1.34,0,0,0-.49-.17,4,4,0,0,0-.6,0,1.84,1.84,0,0,0-1.12.31,1.37,1.37,0,0,0-.48,1Zm5.58,1.79a1.08,1.08,0,0,1-.38.21,3.81,3.81,0,0,1-.49.13l-.55.08-.58.08a4.37,4.37,0,0,0-.54.14,1.59,1.59,0,0,0-.46.23,1.09,1.09,0,0,0-.31.37,1.17,1.17,0,0,0-.12.56,1.13,1.13,0,0,0,.12.54.91.91,0,0,0,.32.35,1.37,1.37,0,0,0,.48.18,3,3,0,0,0,.56.05,2.13,2.13,0,0,0,1.1-.24,1.59,1.59,0,0,0,.58-.57,1.82,1.82,0,0,0,.23-.67,4.71,4.71,0,0,0,0-.54Z" transform="translate(-7.43 -27.66)"/><path class="cls-3" d="M79.08,332.51v12.14H76.67V332.51Z" transform="translate(-7.43 -27.66)"/><path class="cls-3" d="M92,343.52a2.49,2.49,0,0,1-1.11,1,3.7,3.7,0,0,1-1.56.31,3.76,3.76,0,0,1-1.73-.38,3.48,3.48,0,0,1-1.23-1,4.7,4.7,0,0,1-.73-1.5,6.31,6.31,0,0,1-.25-1.77,5.93,5.93,0,0,1,.25-1.71,4.43,4.43,0,0,1,.73-1.45,3.55,3.55,0,0,1,2.92-1.39,3.46,3.46,0,0,1,1.49.33,2.59,2.59,0,0,1,1.11,1h0v-4.42h2.41v12.14H92v-1.12Zm-.1-4.34a2.57,2.57,0,0,0-.35-.88,2,2,0,0,0-.64-.62,1.86,1.86,0,0,0-1-.24,2,2,0,0,0-1,.24,1.88,1.88,0,0,0-.65.63,2.79,2.79,0,0,0-.36.89,4.84,4.84,0,0,0-.11,1,4.47,4.47,0,0,0,.12,1,2.77,2.77,0,0,0,.38.91,2.12,2.12,0,0,0,.66.65,1.8,1.8,0,0,0,1,.25,1.91,1.91,0,0,0,1-.24,1.81,1.81,0,0,0,.64-.64,2.87,2.87,0,0,0,.34-.91,5.37,5.37,0,0,0,.1-1.05A5.26,5.26,0,0,0,91.85,339.18Z" transform="translate(-7.43 -27.66)"/><path class="cls-3" d="M98.68,342.54a2.48,2.48,0,0,0,2.82.16,1.52,1.52,0,0,0,.65-.77h2.13a4,4,0,0,1-1.56,2.26,4.61,4.61,0,0,1-2.55.68,5,5,0,0,1-1.87-.33,3.89,3.89,0,0,1-1.41-.94,4.24,4.24,0,0,1-.89-1.46,5.35,5.35,0,0,1-.31-1.87,5.13,5.13,0,0,1,.32-1.84A4.25,4.25,0,0,1,98.34,336a4.55,4.55,0,0,1,1.83-.36,4.18,4.18,0,0,1,2,.43,3.91,3.91,0,0,1,1.37,1.17,4.8,4.8,0,0,1,.77,1.67,6.21,6.21,0,0,1,.17,2H98.09A2.44,2.44,0,0,0,98.68,342.54Zm2.73-4.62a1.7,1.7,0,0,0-1.32-.48,2.1,2.1,0,0,0-1,.2,1.84,1.84,0,0,0-.61.48,1.78,1.78,0,0,0-.32.61,2.73,2.73,0,0,0-.11.58H102A2.79,2.79,0,0,0,101.41,337.91Z" transform="translate(-7.43 -27.66)"/><path class="cls-3" d="M107.89,342.46a1.4,1.4,0,0,0,.42.46,1.78,1.78,0,0,0,.59.26,2.76,2.76,0,0,0,.69.08,2.55,2.55,0,0,0,.54-.06,1.83,1.83,0,0,0,.51-.19,1.16,1.16,0,0,0,.38-.34.89.89,0,0,0,.15-.54q0-.54-.72-.82a14.58,14.58,0,0,0-2-.54q-.53-.12-1-.28a3.5,3.5,0,0,1-.89-.42,2.06,2.06,0,0,1-.63-.66,1.88,1.88,0,0,1-.24-1A2.65,2.65,0,0,1,106,337a2.43,2.43,0,0,1,.88-.86,3.83,3.83,0,0,1,1.22-.44,7.55,7.55,0,0,1,1.39-.13,7,7,0,0,1,1.39.14,3.66,3.66,0,0,1,1.2.46,2.74,2.74,0,0,1,.88.86,2.88,2.88,0,0,1,.42,1.35H111a1.06,1.06,0,0,0-.53-.94,2.4,2.4,0,0,0-1.12-.25l-.44,0a1.49,1.49,0,0,0-.43.11.9.9,0,0,0-.33.25.65.65,0,0,0-.14.43.66.66,0,0,0,.24.53,1.82,1.82,0,0,0,.62.33,7.81,7.81,0,0,0,.88.23l1,.22a10.18,10.18,0,0,1,1,.29,3.4,3.4,0,0,1,.89.45,2.19,2.19,0,0,1,.63.7,2,2,0,0,1,.24,1,2.67,2.67,0,0,1-1.26,2.4,3.71,3.71,0,0,1-1.28.5,7.46,7.46,0,0,1-1.47.14,7.31,7.31,0,0,1-1.5-.15,4,4,0,0,1-1.3-.51,2.9,2.9,0,0,1-.94-.94,3,3,0,0,1-.4-1.47h2.29A1.32,1.32,0,0,0,107.89,342.46Z" transform="translate(-7.43 -27.66)"/><path class="cls-3" d="M115.05,334.5v-2h2.41v2Zm2.41,1.36v8.79h-2.41v-8.79Z" transform="translate(-7.43 -27.66)"/><path class="cls-3" d="M127.68,345.29a3,3,0,0,1-.62,1.27,3.7,3.7,0,0,1-1.38,1,6,6,0,0,1-2.41.41,5.63,5.63,0,0,1-1.32-.16,4.18,4.18,0,0,1-1.22-.5,3,3,0,0,1-.92-.88,2.53,2.53,0,0,1-.42-1.28h2.4a1.38,1.38,0,0,0,.66.94,2.38,2.38,0,0,0,1.14.26,1.75,1.75,0,0,0,1.49-.61,2.4,2.4,0,0,0,.45-1.55V343h0a2.39,2.39,0,0,1-1.11,1,3.6,3.6,0,0,1-1.52.33,3.84,3.84,0,0,1-1.7-.35,3.23,3.23,0,0,1-1.17-1,4,4,0,0,1-.67-1.41,6.69,6.69,0,0,1-.21-1.71,5.48,5.48,0,0,1,.25-1.64,4.28,4.28,0,0,1,.72-1.39,3.5,3.5,0,0,1,1.18-1,3.54,3.54,0,0,1,1.62-.36,3.4,3.4,0,0,1,1.52.32,2.63,2.63,0,0,1,1.1,1.09h0v-1.17h2.3v8.23A5.91,5.91,0,0,1,127.68,345.29Zm-3.31-2.92a1.87,1.87,0,0,0,.65-.54,2.41,2.41,0,0,0,.38-.77,3.21,3.21,0,0,0,.13-.91,5,5,0,0,0-.1-1,2.57,2.57,0,0,0-.34-.86,1.76,1.76,0,0,0-.63-.6,2,2,0,0,0-1-.22,1.77,1.77,0,0,0-.88.2,1.84,1.84,0,0,0-.61.55,2.33,2.33,0,0,0-.36.8,3.94,3.94,0,0,0-.11.94,4.82,4.82,0,0,0,.09.94,2.56,2.56,0,0,0,.32.84,1.89,1.89,0,0,0,.6.61,1.71,1.71,0,0,0,.94.24A1.91,1.91,0,0,0,124.37,342.37Z" transform="translate(-7.43 -27.66)"/><path class="cls-3" d="M132.05,335.86v1.22h.05A2.77,2.77,0,0,1,133.3,336a3.44,3.44,0,0,1,1.5-.35,4.1,4.1,0,0,1,1.59.26,2.36,2.36,0,0,1,1,.73,2.84,2.84,0,0,1,.5,1.14,7.1,7.1,0,0,1,.14,1.49v5.41h-2.41v-5a3.08,3.08,0,0,0-.34-1.62,1.32,1.32,0,0,0-1.21-.54,1.67,1.67,0,0,0-1.43.59,3.26,3.26,0,0,0-.44,1.93v4.61h-2.41v-8.79Z" transform="translate(-7.43 -27.66)"/><path class="cls-4" d="M174.59,28.79h-5.27V77.88h5.27V79h-6.4V27.66h6.4Z" transform="translate(-7.43 -27.66)"/><path class="cls-4" d="M364.95,77.88h5.27V28.79h-5.27V27.66h6.4V79h-6.4Z" transform="translate(-7.43 -27.66)"/><path class="cls-4" d="M371.9,99.81a9.9,9.9,0,0,1,.88,4.76v9.23a18.58,18.58,0,0,0,.79,5.83,7.51,7.51,0,0,0,3.28,4v1.13a3,3,0,0,0-1.67,1,7.41,7.41,0,0,0-1.3,2.15,13.85,13.85,0,0,0-.82,2.94,19.56,19.56,0,0,0-.28,3.34v9.29a9.54,9.54,0,0,1-.88,4.7,3.47,3.47,0,0,1-3.25,1.47h-2.83V148.5h2.72a2.53,2.53,0,0,0,2.41-1.27,11,11,0,0,0,.71-4.78v-9.23a16.85,16.85,0,0,1,.23-2.66,13.1,13.1,0,0,1,.74-2.72,9.79,9.79,0,0,1,1.27-2.32,4.44,4.44,0,0,1,1.84-1.47,6.46,6.46,0,0,1-3-3.48,14.59,14.59,0,0,1-1.1-5.8v-9.17a19.81,19.81,0,0,0-.2-3.09,6.17,6.17,0,0,0-.57-1.9,2,2,0,0,0-1-.93,3.5,3.5,0,0,0-1.39-.25h-2.72V98.28h2.83A3.43,3.43,0,0,1,371.9,99.81Z" transform="translate(-7.43 -27.66)"/><path class="cls-3" d="M20,100.12v1.12h0a2.65,2.65,0,0,1,1.12-1,3.45,3.45,0,0,1,1.5-.32,3.81,3.81,0,0,1,1.78.39,3.7,3.7,0,0,1,1.24,1,4.39,4.39,0,0,1,.73,1.5,6.69,6.69,0,0,1,.24,1.79,6,6,0,0,1-.24,1.7,4.33,4.33,0,0,1-.72,1.45,3.58,3.58,0,0,1-1.21,1,3.64,3.64,0,0,1-1.69.37,3.43,3.43,0,0,1-1.5-.33,2.85,2.85,0,0,1-1.13-1h0V112H17.69V100.12Zm3.14,7a1.94,1.94,0,0,0,.65-.62,2.57,2.57,0,0,0,.35-.89,5.28,5.28,0,0,0,.1-1,4.88,4.88,0,0,0-.11-1,2.76,2.76,0,0,0-.37-.91,2,2,0,0,0-.65-.65,1.83,1.83,0,0,0-1-.25,1.86,1.86,0,0,0-1,.25,2,2,0,0,0-.65.64,2.65,2.65,0,0,0-.35.9,5.33,5.33,0,0,0-.1,1.05,4.88,4.88,0,0,0,.11,1,2.69,2.69,0,0,0,.36.89,2.06,2.06,0,0,0,2.64.62Z" transform="translate(-7.43 -27.66)"/><path class="cls-3" d="M30.37,100.12v1.63h0a3,3,0,0,1,.46-.76,3,3,0,0,1,.66-.59,3.23,3.23,0,0,1,.8-.38,2.89,2.89,0,0,1,.88-.14,1.89,1.89,0,0,1,.53.08v2.24l-.41-.06-.46,0a2.58,2.58,0,0,0-1.12.22,2,2,0,0,0-.74.6,2.42,2.42,0,0,0-.4.89,4.84,4.84,0,0,0-.12,1.1v4H28.08v-8.79Z" transform="translate(-7.43 -27.66)"/><path class="cls-3" d="M34.43,102.61a4,4,0,0,1,2.35-2.4,5,5,0,0,1,1.87-.33,5.08,5.08,0,0,1,1.88.33,4,4,0,0,1,2.35,2.4,5.39,5.39,0,0,1,.32,1.91,5.32,5.32,0,0,1-.32,1.9,4.13,4.13,0,0,1-.92,1.45,4,4,0,0,1-1.44.93,5.21,5.21,0,0,1-1.88.32,5.14,5.14,0,0,1-1.87-.32,4,4,0,0,1-1.43-.93,4.12,4.12,0,0,1-.92-1.45,5.31,5.31,0,0,1-.32-1.9A5.38,5.38,0,0,1,34.43,102.61Zm2.19,2.94a2.73,2.73,0,0,0,.35.9,1.85,1.85,0,0,0,.65.64,2,2,0,0,0,1,.24,2,2,0,0,0,1-.24,1.83,1.83,0,0,0,.66-.64,2.74,2.74,0,0,0,.35-.9,5.16,5.16,0,0,0,.1-1,5.28,5.28,0,0,0-.1-1,2.65,2.65,0,0,0-.35-.9,1.94,1.94,0,0,0-.66-.64,2,2,0,0,0-1-.25,1.86,1.86,0,0,0-1.67.88,2.64,2.64,0,0,0-.35.9,5.28,5.28,0,0,0-.1,1A5.16,5.16,0,0,0,36.63,105.55Z" transform="translate(-7.43 -27.66)"/><path class="cls-3" d="M51,107.79a2.49,2.49,0,0,1-1.11,1,3.71,3.71,0,0,1-1.56.31,3.76,3.76,0,0,1-1.73-.38,3.48,3.48,0,0,1-1.23-1,4.7,4.7,0,0,1-.73-1.5,6.31,6.31,0,0,1-.25-1.77,5.93,5.93,0,0,1,.25-1.71,4.44,4.44,0,0,1,.73-1.45,3.55,3.55,0,0,1,2.92-1.39,3.45,3.45,0,0,1,1.49.33,2.59,2.59,0,0,1,1.11,1h0V96.77h2.41v12.14H51v-1.12Zm-.1-4.34a2.57,2.57,0,0,0-.35-.88,2,2,0,0,0-.64-.62,1.87,1.87,0,0,0-1-.24,2,2,0,0,0-1,.24,1.89,1.89,0,0,0-.65.63,2.79,2.79,0,0,0-.36.89,4.85,4.85,0,0,0-.11,1,4.46,4.46,0,0,0,.12,1,2.78,2.78,0,0,0,.38.91,2.11,2.11,0,0,0,.66.65,1.79,1.79,0,0,0,1,.25,1.92,1.92,0,0,0,1-.24,1.81,1.81,0,0,0,.64-.64,2.86,2.86,0,0,0,.34-.91,5.37,5.37,0,0,0,.1-1.05A5.24,5.24,0,0,0,50.91,103.44Z" transform="translate(-7.43 -27.66)"/><path class="cls-3" d="M61.11,108.91v-1.22h-.05a2.71,2.71,0,0,1-1.19,1.1,3.51,3.51,0,0,1-1.5.34,4.21,4.21,0,0,1-1.59-.26,2.29,2.29,0,0,1-1-.72,2.83,2.83,0,0,1-.5-1.14,7.09,7.09,0,0,1-.14-1.49v-5.41h2.41v5a3.08,3.08,0,0,0,.34,1.62,1.32,1.32,0,0,0,1.21.54,1.67,1.67,0,0,0,1.43-.59,3.26,3.26,0,0,0,.44-1.93v-4.61H63.4v8.79Z" transform="translate(-7.43 -27.66)"/><path class="cls-3" d="M69.44,101.7a1.69,1.69,0,0,0-1,.26,2.09,2.09,0,0,0-.64.68,2.93,2.93,0,0,0-.35.92,5,5,0,0,0-.1,1,4.79,4.79,0,0,0,.1,1,3,3,0,0,0,.33.89,1.9,1.9,0,0,0,.62.65,1.71,1.71,0,0,0,1,.25,1.77,1.77,0,0,0,1.33-.48,2.29,2.29,0,0,0,.59-1.3h2.33a4,4,0,0,1-1.36,2.67,4.39,4.39,0,0,1-2.87.92,4.82,4.82,0,0,1-1.81-.33,4,4,0,0,1-1.4-.93,4.2,4.2,0,0,1-.9-1.42,4.91,4.91,0,0,1-.32-1.81,5.86,5.86,0,0,1,.3-1.9,4.26,4.26,0,0,1,.88-1.51,4,4,0,0,1,1.41-1,4.79,4.79,0,0,1,1.9-.36,5.52,5.52,0,0,1,1.5.2,4,4,0,0,1,1.29.62,3.21,3.21,0,0,1,1.33,2.51H71.22A1.62,1.62,0,0,0,69.44,101.7Z" transform="translate(-7.43 -27.66)"/><path class="cls-3" d="M79.82,100.12v1.62H78.06v4.35a.82.82,0,0,0,1,1l.39,0,.36-.05v1.87a5.7,5.7,0,0,1-.68.07l-.73,0a7,7,0,0,1-1.06-.08,2.5,2.5,0,0,1-.88-.3,1.57,1.57,0,0,1-.6-.63,2.24,2.24,0,0,1-.22-1.07v-5.19H74.18v-1.62h1.46V97.48h2.41v2.63Z" transform="translate(-7.43 -27.66)"/><path class="cls-3" d="M91.94,107.79a2.49,2.49,0,0,1-1.11,1,3.71,3.71,0,0,1-1.56.31,3.76,3.76,0,0,1-1.73-.38,3.48,3.48,0,0,1-1.23-1,4.7,4.7,0,0,1-.73-1.5,6.31,6.31,0,0,1-.25-1.77,5.93,5.93,0,0,1,.25-1.71,4.44,4.44,0,0,1,.73-1.45,3.55,3.55,0,0,1,2.92-1.39,3.45,3.45,0,0,1,1.49.33,2.59,2.59,0,0,1,1.11,1h0V96.77h2.41v12.14H92v-1.12Zm-.1-4.34a2.57,2.57,0,0,0-.35-.88,2,2,0,0,0-.64-.62,1.87,1.87,0,0,0-1-.24,2,2,0,0,0-1,.24,1.89,1.89,0,0,0-.65.63,2.79,2.79,0,0,0-.36.89,4.85,4.85,0,0,0-.11,1,4.46,4.46,0,0,0,.12,1,2.78,2.78,0,0,0,.38.91,2.11,2.11,0,0,0,.66.65,1.79,1.79,0,0,0,1,.25,1.92,1.92,0,0,0,1-.24,1.81,1.81,0,0,0,.64-.64,2.86,2.86,0,0,0,.34-.91,5.37,5.37,0,0,0,.1-1.05A5.24,5.24,0,0,0,91.84,103.44Z" transform="translate(-7.43 -27.66)"/><path class="cls-3" d="M98.68,106.8a2.48,2.48,0,0,0,2.82.16,1.52,1.52,0,0,0,.65-.77h2.13a4,4,0,0,1-1.56,2.26,4.6,4.6,0,0,1-2.55.68,5,5,0,0,1-1.87-.33,3.88,3.88,0,0,1-1.41-.94,4.23,4.23,0,0,1-.89-1.46,5.34,5.34,0,0,1-.31-1.87,5.13,5.13,0,0,1,.32-1.84,4.25,4.25,0,0,1,2.34-2.45,4.55,4.55,0,0,1,1.83-.36,4.18,4.18,0,0,1,2,.43,3.91,3.91,0,0,1,1.37,1.16,4.8,4.8,0,0,1,.77,1.67,6.22,6.22,0,0,1,.17,2H98.08A2.44,2.44,0,0,0,98.68,106.8Zm2.73-4.62a1.7,1.7,0,0,0-1.32-.48,2.1,2.1,0,0,0-1,.2,1.83,1.83,0,0,0-.61.48,1.77,1.77,0,0,0-.32.61,2.72,2.72,0,0,0-.11.58H102A2.79,2.79,0,0,0,101.4,102.18Z" transform="translate(-7.43 -27.66)"/><path class="cls-3" d="M107.88,106.72a1.41,1.41,0,0,0,.42.46,1.78,1.78,0,0,0,.59.26,2.76,2.76,0,0,0,.69.08,2.55,2.55,0,0,0,.54-.06,1.82,1.82,0,0,0,.51-.19,1.16,1.16,0,0,0,.38-.34.89.89,0,0,0,.15-.54q0-.54-.72-.82a14.44,14.44,0,0,0-2-.54q-.53-.12-1-.28a3.5,3.5,0,0,1-.89-.42,2.06,2.06,0,0,1-.63-.66,1.88,1.88,0,0,1-.24-1,2.65,2.65,0,0,1,.33-1.39,2.45,2.45,0,0,1,.88-.86,3.85,3.85,0,0,1,1.22-.44,7.55,7.55,0,0,1,1.39-.13,7,7,0,0,1,1.39.14,3.68,3.68,0,0,1,1.2.46,2.76,2.76,0,0,1,.88.86,2.89,2.89,0,0,1,.42,1.35H111a1.06,1.06,0,0,0-.53-.94,2.41,2.41,0,0,0-1.12-.25l-.44,0a1.47,1.47,0,0,0-.43.11.89.89,0,0,0-.33.25.65.65,0,0,0-.14.43.66.66,0,0,0,.24.53,1.84,1.84,0,0,0,.62.33,7.81,7.81,0,0,0,.88.23l1,.22a10.31,10.31,0,0,1,1,.29,3.39,3.39,0,0,1,.89.45,2.18,2.18,0,0,1,.63.7,2,2,0,0,1,.24,1,2.67,2.67,0,0,1-1.26,2.4,3.73,3.73,0,0,1-1.28.5,7.5,7.5,0,0,1-1.47.14,7.28,7.28,0,0,1-1.5-.15,4,4,0,0,1-1.3-.51,2.8,2.8,0,0,1-1.33-2.41h2.29A1.32,1.32,0,0,0,107.88,106.72Z" transform="translate(-7.43 -27.66)"/><path class="cls-3" d="M115,98.76v-2h2.41v2Zm2.41,1.36v8.79H115v-8.79Z" transform="translate(-7.43 -27.66)"/><path class="cls-3" d="M127.67,109.55a3,3,0,0,1-.62,1.27,3.7,3.7,0,0,1-1.38,1,5.94,5.94,0,0,1-2.41.41,5.61,5.61,0,0,1-1.32-.16,4.18,4.18,0,0,1-1.22-.5,3,3,0,0,1-.92-.88,2.53,2.53,0,0,1-.42-1.28h2.4a1.38,1.38,0,0,0,.66.94,2.38,2.38,0,0,0,1.14.26,1.75,1.75,0,0,0,1.49-.61,2.4,2.4,0,0,0,.45-1.55v-1.16h0a2.39,2.39,0,0,1-1.11,1,3.61,3.61,0,0,1-1.52.33,3.84,3.84,0,0,1-1.7-.35,3.22,3.22,0,0,1-1.17-1,4,4,0,0,1-.67-1.41,6.69,6.69,0,0,1-.21-1.71,5.47,5.47,0,0,1,.25-1.64,4.27,4.27,0,0,1,.72-1.39,3.48,3.48,0,0,1,1.18-1,3.54,3.54,0,0,1,1.62-.36,3.4,3.4,0,0,1,1.52.32,2.63,2.63,0,0,1,1.1,1.09h0v-1.17h2.3v8.23A5.9,5.9,0,0,1,127.67,109.55Zm-3.31-2.92a1.89,1.89,0,0,0,.65-.54,2.41,2.41,0,0,0,.38-.77,3.2,3.2,0,0,0,.13-.91,5,5,0,0,0-.1-1,2.58,2.58,0,0,0-.34-.86,1.76,1.76,0,0,0-.63-.59,2,2,0,0,0-1-.22,1.77,1.77,0,0,0-.88.2,1.84,1.84,0,0,0-.61.55,2.34,2.34,0,0,0-.36.8,3.94,3.94,0,0,0-.11.94,4.82,4.82,0,0,0,.09.94,2.56,2.56,0,0,0,.32.84,1.89,1.89,0,0,0,.6.61,1.71,1.71,0,0,0,.94.24A1.92,1.92,0,0,0,124.36,106.63Z" transform="translate(-7.43 -27.66)"/><path class="cls-3" d="M132,100.12v1.22h.05a2.77,2.77,0,0,1,1.19-1.11,3.44,3.44,0,0,1,1.5-.35,4.11,4.11,0,0,1,1.59.26,2.36,2.36,0,0,1,1,.73,2.84,2.84,0,0,1,.5,1.14,7.09,7.09,0,0,1,.14,1.49v5.41h-2.41v-5a3.08,3.08,0,0,0-.34-1.62,1.32,1.32,0,0,0-1.21-.54,1.67,1.67,0,0,0-1.43.59,3.26,3.26,0,0,0-.44,1.93v4.61h-2.41v-8.79Z" transform="translate(-7.43 -27.66)"/><path class="cls-4" d="M393.69,122.37a3.14,3.14,0,0,1,.62-1.12,2.94,2.94,0,0,1,1-.75,3.76,3.76,0,0,1,2.81,0,3,3,0,0,1,1,.75,3.14,3.14,0,0,1,.62,1.12,4.47,4.47,0,0,1,.21,1.38,4.41,4.41,0,0,1-.21,1.38,3.15,3.15,0,0,1-.62,1.11,2.88,2.88,0,0,1-1,.74,3.85,3.85,0,0,1-2.81,0,2.87,2.87,0,0,1-1-.74,3.15,3.15,0,0,1-.62-1.11,4.41,4.41,0,0,1-.21-1.38A4.47,4.47,0,0,1,393.69,122.37Zm1.13,2.47a2.28,2.28,0,0,0,.45.79,2,2,0,0,0,.67.49,2,2,0,0,0,1.63,0,2,2,0,0,0,.67-.49,2.28,2.28,0,0,0,.45-.79,3.69,3.69,0,0,0,0-2.17,2.34,2.34,0,0,0-.45-.8,1.91,1.91,0,0,0-.67-.49,2,2,0,0,0-1.62,0,1.91,1.91,0,0,0-.67.49,2.34,2.34,0,0,0-.45.8,3.69,3.69,0,0,0,0,2.17Z" transform="translate(-7.43 -27.66)"/><path class="cls-4" d="M404.18,120.39v1h-1.34v4.17a1.21,1.21,0,0,0,0,.31.32.32,0,0,0,.12.18.54.54,0,0,0,.25.08l.42,0h.51v1h-.84a4,4,0,0,1-.73-.06,1.07,1.07,0,0,1-.49-.21.92.92,0,0,1-.28-.44,2.56,2.56,0,0,1-.09-.75v-4.28h-1.14v-1h1.14v-2h1.11v2Z" transform="translate(-7.43 -27.66)"/><path class="cls-4" d="M406.5,117.83v3.55h0a1.47,1.47,0,0,1,.36-.53,2.06,2.06,0,0,1,.53-.35,2.72,2.72,0,0,1,.61-.2,3.07,3.07,0,0,1,.62-.06,2.9,2.9,0,0,1,1.1.18,1.82,1.82,0,0,1,.72.51,1.88,1.88,0,0,1,.38.77,4.13,4.13,0,0,1,.11,1v4.42h-1.11v-4.55a1.33,1.33,0,0,0-.36-1,1.35,1.35,0,0,0-1-.36,2.25,2.25,0,0,0-.88.16,1.65,1.65,0,0,0-.62.44,1.91,1.91,0,0,0-.37.67,2.73,2.73,0,0,0-.12.84v3.8h-1.1v-9.28Z" transform="translate(-7.43 -27.66)"/><path class="cls-4" d="M417.38,126.68a3,3,0,0,1-1.9.57,3.45,3.45,0,0,1-1.4-.26,2.75,2.75,0,0,1-1-.73,3.1,3.1,0,0,1-.6-1.12,5.38,5.38,0,0,1-.23-1.42,4,4,0,0,1,.23-1.4,3.37,3.37,0,0,1,.66-1.1,3,3,0,0,1,1-.73,3.07,3.07,0,0,1,1.27-.26,2.76,2.76,0,0,1,1.49.37,2.94,2.94,0,0,1,.95.94,3.72,3.72,0,0,1,.49,1.25,5.35,5.35,0,0,1,.11,1.29h-5a2.66,2.66,0,0,0,.1.84,1.9,1.9,0,0,0,.38.7,1.85,1.85,0,0,0,.66.49,2.28,2.28,0,0,0,.95.18,1.91,1.91,0,0,0,1.15-.33,1.57,1.57,0,0,0,.59-1h1.09A2.68,2.68,0,0,1,417.38,126.68Zm-.27-4.32a1.89,1.89,0,0,0-.4-.6,1.92,1.92,0,0,0-.6-.4,1.89,1.89,0,0,0-.76-.15,1.93,1.93,0,0,0-.77.15,1.78,1.78,0,0,0-.59.41,2,2,0,0,0-.39.6,2.32,2.32,0,0,0-.17.73h3.86A2.27,2.27,0,0,0,417.12,122.36Z" transform="translate(-7.43 -27.66)"/><path class="cls-4" d="M420.61,120.39v1.42h0a3,3,0,0,1,1-1.21,2.49,2.49,0,0,1,1.48-.36v1.17a3.12,3.12,0,0,0-1.13.18,1.78,1.78,0,0,0-.75.53,2.19,2.19,0,0,0-.42.85,4.59,4.59,0,0,0-.13,1.15v3h-1.11v-6.72Z" transform="translate(-7.43 -27.66)"/><path class="cls-4" d="M428.59,120.39v1h0a2.62,2.62,0,0,1,3.3-.88,1.46,1.46,0,0,1,.71.88,2.35,2.35,0,0,1,.89-.85,2.51,2.51,0,0,1,1.22-.3,3.54,3.54,0,0,1,.92.11,1.9,1.9,0,0,1,.7.34,1.56,1.56,0,0,1,.46.6,2.21,2.21,0,0,1,.16.89v4.93h-1.1V122.7a3.08,3.08,0,0,0-.05-.58,1.2,1.2,0,0,0-.19-.47,1,1,0,0,0-.4-.32,1.59,1.59,0,0,0-.66-.12,1.74,1.74,0,0,0-1.29.47,1.69,1.69,0,0,0-.47,1.25v4.19h-1.1V122.7a2.85,2.85,0,0,0-.06-.6,1.28,1.28,0,0,0-.2-.47,1,1,0,0,0-.38-.31,1.48,1.48,0,0,0-.62-.11,1.65,1.65,0,0,0-.83.19,1.88,1.88,0,0,0-.87,1,1.62,1.62,0,0,0-.1.49v4.19h-1.1v-6.72Z" transform="translate(-7.43 -27.66)"/><path class="cls-4" d="M444.59,127.08a1.57,1.57,0,0,1-.79.17,1,1,0,0,1-.68-.24,1,1,0,0,1-.25-.79,2.64,2.64,0,0,1-1.06.79,3.66,3.66,0,0,1-2.17.14,2,2,0,0,1-.71-.33,1.56,1.56,0,0,1-.47-.58,2,2,0,0,1-.18-.86,2,2,0,0,1,.2-.94,1.69,1.69,0,0,1,.51-.59,2.35,2.35,0,0,1,.73-.34q.41-.12.84-.19c.3-.06.59-.11.86-.14a4.76,4.76,0,0,0,.72-.13,1.2,1.2,0,0,0,.49-.25.6.6,0,0,0,.18-.47,1.1,1.1,0,0,0-.14-.58.94.94,0,0,0-.35-.34,1.43,1.43,0,0,0-.48-.16,3.58,3.58,0,0,0-.53,0,2.34,2.34,0,0,0-1.17.27,1.13,1.13,0,0,0-.51,1h-1.11a2.39,2.39,0,0,1,.26-1.05,2,2,0,0,1,.62-.7,2.61,2.61,0,0,1,.89-.38,4.69,4.69,0,0,1,1.07-.12,6.28,6.28,0,0,1,.9.06,2.37,2.37,0,0,1,.81.27,1.56,1.56,0,0,1,.58.56,1.8,1.8,0,0,1,.22.95v3.45a2.57,2.57,0,0,0,0,.57c0,.12.13.18.31.18a1.34,1.34,0,0,0,.34-.05Zm-1.79-3.45a1.37,1.37,0,0,1-.55.23q-.34.07-.71.12l-.75.1a2.73,2.73,0,0,0-.68.19,1.22,1.22,0,0,0-.49.37,1,1,0,0,0-.19.65.89.89,0,0,0,.11.46.93.93,0,0,0,.29.3,1.2,1.2,0,0,0,.41.17,2.27,2.27,0,0,0,.49.05,2.63,2.63,0,0,0,.94-.15,2,2,0,0,0,.64-.38,1.48,1.48,0,0,0,.36-.49,1.23,1.23,0,0,0,.12-.5Z" transform="translate(-7.43 -27.66)"/><path class="cls-4" d="M448.49,120.39v1h-1.34v4.17a1.21,1.21,0,0,0,0,.31.32.32,0,0,0,.12.18.54.54,0,0,0,.25.08l.42,0h.51v1h-.84a4,4,0,0,1-.73-.06,1.07,1.07,0,0,1-.49-.21.92.92,0,0,1-.28-.44,2.56,2.56,0,0,1-.09-.75v-4.28h-1.14v-1H446v-2h1.11v2Z" transform="translate(-7.43 -27.66)"/><path class="cls-4" d="M454.47,126.68a3,3,0,0,1-1.9.57,3.45,3.45,0,0,1-1.4-.26,2.75,2.75,0,0,1-1-.73,3.1,3.1,0,0,1-.6-1.12,5.38,5.38,0,0,1-.23-1.42,4,4,0,0,1,.23-1.4,3.37,3.37,0,0,1,.66-1.1,3,3,0,0,1,1-.73,3.07,3.07,0,0,1,1.27-.26,2.76,2.76,0,0,1,1.49.37,2.94,2.94,0,0,1,.95.94,3.72,3.72,0,0,1,.49,1.25,5.35,5.35,0,0,1,.11,1.29h-5a2.66,2.66,0,0,0,.1.84,1.9,1.9,0,0,0,.38.7,1.85,1.85,0,0,0,.66.49,2.28,2.28,0,0,0,.95.18,1.91,1.91,0,0,0,1.15-.33,1.57,1.57,0,0,0,.59-1h1.09A2.68,2.68,0,0,1,454.47,126.68Zm-.27-4.32a1.89,1.89,0,0,0-.4-.6,1.92,1.92,0,0,0-.6-.4,1.89,1.89,0,0,0-.76-.15,1.93,1.93,0,0,0-.77.15,1.78,1.78,0,0,0-.59.41,2,2,0,0,0-.39.6,2.32,2.32,0,0,0-.17.73h3.86A2.27,2.27,0,0,0,454.21,122.36Z" transform="translate(-7.43 -27.66)"/><path class="cls-4" d="M457.7,120.39v1.42h0a3,3,0,0,1,1-1.21,2.49,2.49,0,0,1,1.48-.36v1.17a3.12,3.12,0,0,0-1.13.18,1.78,1.78,0,0,0-.75.53,2.19,2.19,0,0,0-.42.85,4.59,4.59,0,0,0-.13,1.15v3h-1.11v-6.72Z" transform="translate(-7.43 -27.66)"/><path class="cls-4" d="M461.09,119.18v-1.35h1.1v1.35Zm1.1,1.21v6.72h-1.1v-6.72Z" transform="translate(-7.43 -27.66)"/><path class="cls-4" d="M469.86,127.08a1.57,1.57,0,0,1-.79.17,1,1,0,0,1-.68-.24,1,1,0,0,1-.25-.79,2.64,2.64,0,0,1-1.06.79,3.66,3.66,0,0,1-2.17.14,2,2,0,0,1-.71-.33,1.56,1.56,0,0,1-.47-.58,2,2,0,0,1-.18-.86,2,2,0,0,1,.2-.94,1.69,1.69,0,0,1,.51-.59,2.35,2.35,0,0,1,.73-.34q.41-.12.84-.19c.3-.06.59-.11.86-.14a4.76,4.76,0,0,0,.72-.13,1.2,1.2,0,0,0,.49-.25.6.6,0,0,0,.18-.47,1.1,1.1,0,0,0-.14-.58.94.94,0,0,0-.35-.34,1.43,1.43,0,0,0-.48-.16,3.58,3.58,0,0,0-.53,0,2.34,2.34,0,0,0-1.17.27,1.13,1.13,0,0,0-.51,1h-1.11a2.39,2.39,0,0,1,.26-1.05,2,2,0,0,1,.62-.7,2.61,2.61,0,0,1,.89-.38,4.69,4.69,0,0,1,1.07-.12,6.28,6.28,0,0,1,.9.06,2.37,2.37,0,0,1,.81.27,1.56,1.56,0,0,1,.58.56,1.8,1.8,0,0,1,.22.95v3.45a2.57,2.57,0,0,0,0,.57c0,.12.13.18.31.18a1.34,1.34,0,0,0,.34-.05Zm-1.79-3.45a1.37,1.37,0,0,1-.55.23q-.34.07-.71.12l-.75.1a2.73,2.73,0,0,0-.68.19,1.22,1.22,0,0,0-.49.37,1,1,0,0,0-.19.65.89.89,0,0,0,.11.46.93.93,0,0,0,.29.3,1.2,1.2,0,0,0,.41.17,2.27,2.27,0,0,0,.49.05,2.63,2.63,0,0,0,.94-.15,2,2,0,0,0,.64-.38,1.48,1.48,0,0,0,.36-.49,1.23,1.23,0,0,0,.12-.5Z" transform="translate(-7.43 -27.66)"/><path class="cls-4" d="M472.06,117.83v9.28H471v-9.28Z" transform="translate(-7.43 -27.66)"/><path class="cls-4" d="M474.62,125.61a1.18,1.18,0,0,0,.41.4,1.83,1.83,0,0,0,.57.21,3.28,3.28,0,0,0,.66.06,4.08,4.08,0,0,0,.55,0,2,2,0,0,0,.53-.14,1,1,0,0,0,.4-.31.82.82,0,0,0,.16-.51.74.74,0,0,0-.33-.65,2.78,2.78,0,0,0-.81-.36q-.49-.14-1.06-.25a5.43,5.43,0,0,1-1.06-.31,2.19,2.19,0,0,1-.81-.57,1.47,1.47,0,0,1-.33-1,1.61,1.61,0,0,1,.23-.87,1.86,1.86,0,0,1,.58-.59,2.69,2.69,0,0,1,.81-.34,3.74,3.74,0,0,1,.89-.11,5.28,5.28,0,0,1,1.05.1,2.44,2.44,0,0,1,.85.34,1.76,1.76,0,0,1,.59.65,2.46,2.46,0,0,1,.26,1h-1.1a1.13,1.13,0,0,0-.17-.54,1.11,1.11,0,0,0-.36-.34,1.63,1.63,0,0,0-.49-.19,2.5,2.5,0,0,0-.54-.06,3.24,3.24,0,0,0-.5,0,1.69,1.69,0,0,0-.46.14.93.93,0,0,0-.34.26.65.65,0,0,0-.13.42.62.62,0,0,0,.2.47,1.6,1.6,0,0,0,.51.31,4.52,4.52,0,0,0,.7.21l.78.18a8.22,8.22,0,0,1,.81.22,2.64,2.64,0,0,1,.7.34,1.7,1.7,0,0,1,.49.54,1.59,1.59,0,0,1,.19.81,1.87,1.87,0,0,1-.25,1,2,2,0,0,1-.66.65,2.77,2.77,0,0,1-.92.34,5.47,5.47,0,0,1-1,.1,4.73,4.73,0,0,1-1.07-.12,2.6,2.6,0,0,1-.9-.38,2,2,0,0,1-.62-.7,2.42,2.42,0,0,1-.26-1.06h1.1A1.25,1.25,0,0,0,474.62,125.61Z" transform="translate(-7.43 -27.66)"/><path class="cls-4" d="M398.09,164.36a2.88,2.88,0,0,1,2.13.72,3.2,3.2,0,0,1,0,4,2.83,2.83,0,0,1-2.13.72h-2.83v3.8H394v-9.28Zm-.42,4.45a2.2,2.2,0,0,0,1.54-.43,1.63,1.63,0,0,0,.49-1.27,1.61,1.61,0,0,0-.49-1.27,2.27,2.27,0,0,0-1.54-.44h-2.42v3.41Z" transform="translate(-7.43 -27.66)"/><path class="cls-4" d="M404.7,173.64l-3.26-9.28h1.33l2.65,8h0l2.68-8h1.29l-3.3,9.28Z" transform="translate(-7.43 -27.66)"/><path class="cls-4" d="M416,165.67a2.87,2.87,0,0,0-1.68-.49,3,3,0,0,0-1.42.31,2.81,2.81,0,0,0-1,.84,3.65,3.65,0,0,0-.57,1.2,5.39,5.39,0,0,0-.18,1.4,6,6,0,0,0,.18,1.5,3.61,3.61,0,0,0,.57,1.23,2.79,2.79,0,0,0,1,.84,3.05,3.05,0,0,0,1.43.31,2.75,2.75,0,0,0,1.08-.2,2.45,2.45,0,0,0,.82-.56,2.59,2.59,0,0,0,.54-.85,3.52,3.52,0,0,0,.23-1.07h1.24a4.22,4.22,0,0,1-1.21,2.73,3.91,3.91,0,0,1-2.81,1,4.47,4.47,0,0,1-1.88-.37,3.7,3.7,0,0,1-1.34-1,4.38,4.38,0,0,1-.8-1.53,6.54,6.54,0,0,1-.27-1.9,6.2,6.2,0,0,1,.29-1.9,4.6,4.6,0,0,1,.84-1.55,3.91,3.91,0,0,1,1.38-1,4.44,4.44,0,0,1,1.89-.38,4.78,4.78,0,0,1,1.38.19,3.7,3.7,0,0,1,1.16.57,3.22,3.22,0,0,1,.84.94,3.47,3.47,0,0,1,.44,1.31h-1.24A2.3,2.3,0,0,0,416,165.67Z" transform="translate(-7.43 -27.66)"/><path class="cls-4" d="M424.38,164.36v9.28h-1.1v-9.28Z" transform="translate(-7.43 -27.66)"/><path class="cls-4" d="M432,173.62a1.57,1.57,0,0,1-.79.17,1,1,0,0,1-.68-.24,1,1,0,0,1-.25-.79,2.64,2.64,0,0,1-1.06.79,3.66,3.66,0,0,1-2.17.14,2,2,0,0,1-.71-.33,1.56,1.56,0,0,1-.47-.58,2,2,0,0,1-.18-.86,2,2,0,0,1,.2-.94,1.69,1.69,0,0,1,.51-.59,2.35,2.35,0,0,1,.73-.34q.41-.12.84-.19c.3-.06.59-.11.86-.14a4.76,4.76,0,0,0,.72-.13,1.2,1.2,0,0,0,.49-.25.6.6,0,0,0,.18-.47,1.1,1.1,0,0,0-.14-.58.94.94,0,0,0-.35-.34,1.43,1.43,0,0,0-.48-.16,3.58,3.58,0,0,0-.53,0,2.34,2.34,0,0,0-1.17.27,1.13,1.13,0,0,0-.51,1H426a2.39,2.39,0,0,1,.26-1.05,2,2,0,0,1,.62-.7,2.61,2.61,0,0,1,.89-.38,4.69,4.69,0,0,1,1.07-.12,6.28,6.28,0,0,1,.9.06,2.37,2.37,0,0,1,.81.27,1.56,1.56,0,0,1,.58.56,1.8,1.8,0,0,1,.22.95v3.45a2.57,2.57,0,0,0,0,.57c0,.12.13.18.31.18a1.34,1.34,0,0,0,.34-.05Zm-1.79-3.45a1.37,1.37,0,0,1-.55.23q-.34.07-.71.12l-.75.1a2.73,2.73,0,0,0-.68.19,1.22,1.22,0,0,0-.49.37,1,1,0,0,0-.19.65.89.89,0,0,0,.11.46.93.93,0,0,0,.29.3,1.2,1.2,0,0,0,.41.17,2.27,2.27,0,0,0,.49.05,2.63,2.63,0,0,0,.94-.15,2,2,0,0,0,.64-.38,1.48,1.48,0,0,0,.36-.49,1.23,1.23,0,0,0,.12-.5Z" transform="translate(-7.43 -27.66)"/><path class="cls-4" d="M435.71,174.54a7.16,7.16,0,0,1-.38.83,2.3,2.3,0,0,1-.42.55,1.42,1.42,0,0,1-.51.31,1.93,1.93,0,0,1-.64.1l-.39,0a1.88,1.88,0,0,1-.38-.09v-1a1.89,1.89,0,0,0,.33.11,1.39,1.39,0,0,0,.32,0,1,1,0,0,0,.57-.16,1,1,0,0,0,.34-.46l.45-1.13-2.67-6.68h1.25l2,5.5h0l1.88-5.5h1.17Z" transform="translate(-7.43 -27.66)"/><path class="cls-4" d="M444.33,173.21a3,3,0,0,1-1.9.57,3.45,3.45,0,0,1-1.4-.26,2.75,2.75,0,0,1-1-.73,3.1,3.1,0,0,1-.6-1.12,5.38,5.38,0,0,1-.23-1.42,4,4,0,0,1,.23-1.4,3.37,3.37,0,0,1,.66-1.1,3,3,0,0,1,1-.73,3.07,3.07,0,0,1,1.27-.26,2.76,2.76,0,0,1,1.49.37,2.94,2.94,0,0,1,.95.94,3.72,3.72,0,0,1,.49,1.25,5.35,5.35,0,0,1,.11,1.29h-5a2.66,2.66,0,0,0,.1.84,1.9,1.9,0,0,0,.38.7,1.85,1.85,0,0,0,.66.49,2.28,2.28,0,0,0,.95.18,1.91,1.91,0,0,0,1.15-.33,1.57,1.57,0,0,0,.59-1h1.09A2.68,2.68,0,0,1,444.33,173.21Zm-.27-4.32a1.89,1.89,0,0,0-.4-.6,1.92,1.92,0,0,0-.6-.4,1.89,1.89,0,0,0-.76-.15,1.93,1.93,0,0,0-.77.15,1.78,1.78,0,0,0-.59.41,2,2,0,0,0-.39.6,2.32,2.32,0,0,0-.17.73h3.86A2.27,2.27,0,0,0,444.07,168.9Z" transform="translate(-7.43 -27.66)"/><path class="cls-4" d="M447.56,166.92v1.42h0a3,3,0,0,1,1-1.21,2.49,2.49,0,0,1,1.48-.36v1.17a3.12,3.12,0,0,0-1.13.18,1.78,1.78,0,0,0-.75.53,2.19,2.19,0,0,0-.42.85,4.59,4.59,0,0,0-.13,1.15v3h-1.11v-6.72Z" transform="translate(-7.43 -27.66)"/><path class="cls-4" d="M395,234.92v3.47h0a1.65,1.65,0,0,1,.86-.81,3.18,3.18,0,0,1,1.29-.25,3,3,0,0,1,1.36.29,2.77,2.77,0,0,1,1,.77,3.44,3.44,0,0,1,.58,1.12,4.6,4.6,0,0,1,.2,1.35,4.76,4.76,0,0,1-.19,1.35,3.18,3.18,0,0,1-.57,1.11,2.68,2.68,0,0,1-1,.75,3.13,3.13,0,0,1-1.35.27,3.27,3.27,0,0,1-.55-.05,3,3,0,0,1-.6-.17,2.35,2.35,0,0,1-.57-.32,1.77,1.77,0,0,1-.45-.5h0v.9h-1.1v-9.28Zm4,4.95a2.46,2.46,0,0,0-.38-.8,1.85,1.85,0,0,0-.65-.56,2,2,0,0,0-.93-.21,1.83,1.83,0,0,0-1.59.8,2.4,2.4,0,0,0-.36.81,3.92,3.92,0,0,0,0,1.88,2.37,2.37,0,0,0,.37.81,1.9,1.9,0,0,0,.66.57,2.06,2.06,0,0,0,1,.21,1.89,1.89,0,0,0,1-.22,1.78,1.78,0,0,0,.62-.58,2.53,2.53,0,0,0,.34-.83,4.42,4.42,0,0,0,.1-1A3.45,3.45,0,0,0,399,239.87Z" transform="translate(-7.43 -27.66)"/><path class="cls-4" d="M406.07,244.21v-1.07h0a2.26,2.26,0,0,1-.9.92,2.68,2.68,0,0,1-1.29.29,3,3,0,0,1-1.11-.17,1.76,1.76,0,0,1-.71-.5,1.87,1.87,0,0,1-.38-.77,4.18,4.18,0,0,1-.11-1v-4.42h1.1V242a1.34,1.34,0,0,0,.36,1,1.35,1.35,0,0,0,1,.36,2.26,2.26,0,0,0,.88-.16,1.66,1.66,0,0,0,.62-.44,1.91,1.91,0,0,0,.37-.67,2.72,2.72,0,0,0,.12-.84v-3.8h1.11v6.72Z" transform="translate(-7.43 -27.66)"/><path class="cls-4" d="M409.95,234.92v9.28h-1.1v-9.28Z" transform="translate(-7.43 -27.66)"/><path class="cls-4" d="M412.83,234.92v5.5l3.07-2.94h1.48l-2.67,2.44,2.86,4.28h-1.4l-2.3-3.51-1,1v2.55h-1.1v-9.28Z" transform="translate(-7.43 -27.66)"/><path class="cls-4" d="M426.27,234.92a2.89,2.89,0,0,1,2.13.72,3.2,3.2,0,0,1,0,4,2.83,2.83,0,0,1-2.13.71h-2.83v3.8h-1.24v-9.28Zm-.42,4.45a2.21,2.21,0,0,0,1.54-.43,1.63,1.63,0,0,0,.49-1.27,1.61,1.61,0,0,0-.49-1.27,2.27,2.27,0,0,0-1.54-.44h-2.42v3.41Z" transform="translate(-7.43 -27.66)"/><path class="cls-4" d="M432.88,244.21l-3.26-9.28h1.33l2.65,8h0l2.68-8h1.29l-3.3,9.28Z" transform="translate(-7.43 -27.66)"/><path class="cls-4" d="M444.18,236.24a2.87,2.87,0,0,0-1.68-.49,3,3,0,0,0-1.42.31,2.82,2.82,0,0,0-1,.84,3.65,3.65,0,0,0-.57,1.2,5.39,5.39,0,0,0-.18,1.4,6,6,0,0,0,.18,1.5,3.62,3.62,0,0,0,.57,1.23,2.79,2.79,0,0,0,1,.84,3.05,3.05,0,0,0,1.43.31,2.75,2.75,0,0,0,1.08-.2,2.45,2.45,0,0,0,.82-.56,2.59,2.59,0,0,0,.54-.85,3.53,3.53,0,0,0,.23-1.07h1.24a4.22,4.22,0,0,1-1.21,2.73,3.92,3.92,0,0,1-2.81,1,4.47,4.47,0,0,1-1.88-.37,3.71,3.71,0,0,1-1.34-1,4.39,4.39,0,0,1-.8-1.53,6.55,6.55,0,0,1-.27-1.9,6.2,6.2,0,0,1,.29-1.9,4.59,4.59,0,0,1,.84-1.55,3.91,3.91,0,0,1,1.38-1,4.44,4.44,0,0,1,1.89-.38,4.74,4.74,0,0,1,1.38.2,3.71,3.71,0,0,1,1.16.57,3.23,3.23,0,0,1,.84.94,3.47,3.47,0,0,1,.44,1.31H445.1A2.29,2.29,0,0,0,444.18,236.24Z" transform="translate(-7.43 -27.66)"/><path class="cls-4" d="M398.09,335.36a2.89,2.89,0,0,1,2.13.72,3.2,3.2,0,0,1,0,4,2.83,2.83,0,0,1-2.13.71h-2.83v3.8H394v-9.28Zm-.42,4.45a2.21,2.21,0,0,0,1.54-.43,1.63,1.63,0,0,0,.49-1.27,1.61,1.61,0,0,0-.49-1.27,2.27,2.27,0,0,0-1.54-.44h-2.42v3.41Z" transform="translate(-7.43 -27.66)"/><path class="cls-4" d="M404.7,344.64l-3.26-9.28h1.33l2.65,8h0l2.68-8h1.29l-3.3,9.28Z" transform="translate(-7.43 -27.66)"/><path class="cls-4" d="M416,336.68a2.87,2.87,0,0,0-1.68-.49,3,3,0,0,0-1.42.31,2.82,2.82,0,0,0-1,.84,3.65,3.65,0,0,0-.57,1.2,5.39,5.39,0,0,0-.18,1.4,6,6,0,0,0,.18,1.5,3.62,3.62,0,0,0,.57,1.23,2.79,2.79,0,0,0,1,.84,3.05,3.05,0,0,0,1.43.31,2.75,2.75,0,0,0,1.08-.2,2.45,2.45,0,0,0,.82-.56,2.59,2.59,0,0,0,.54-.85,3.53,3.53,0,0,0,.23-1.07h1.24a4.22,4.22,0,0,1-1.21,2.73,3.92,3.92,0,0,1-2.81,1,4.47,4.47,0,0,1-1.88-.37,3.71,3.71,0,0,1-1.34-1,4.39,4.39,0,0,1-.8-1.53,6.55,6.55,0,0,1-.27-1.9,6.2,6.2,0,0,1,.29-1.9,4.59,4.59,0,0,1,.84-1.55,3.91,3.91,0,0,1,1.38-1,4.44,4.44,0,0,1,1.89-.38,4.74,4.74,0,0,1,1.38.2,3.71,3.71,0,0,1,1.16.57,3.23,3.23,0,0,1,.84.94,3.47,3.47,0,0,1,.44,1.31h-1.24A2.29,2.29,0,0,0,416,336.68Z" transform="translate(-7.43 -27.66)"/><path class="cls-4" d="M423.27,336.71v-1.35h1.1v1.35Zm1.1,1.21v6.72h-1.1v-6.72Z" transform="translate(-7.43 -27.66)"/><path class="cls-4" d="M427.13,337.92V339h0a2.33,2.33,0,0,1,2.18-1.22,2.92,2.92,0,0,1,1.1.18,1.84,1.84,0,0,1,.72.51,1.88,1.88,0,0,1,.38.77,4.12,4.12,0,0,1,.11,1v4.42h-1.11v-4.55a1.33,1.33,0,0,0-.36-1,1.35,1.35,0,0,0-1-.36,2.26,2.26,0,0,0-.88.16,1.66,1.66,0,0,0-.62.44,1.91,1.91,0,0,0-.37.67,2.73,2.73,0,0,0-.12.84v3.8h-1.1v-6.72Z" transform="translate(-7.43 -27.66)"/><path class="cls-4" d="M438.37,346.54a3.07,3.07,0,0,1-2.37.82,4.57,4.57,0,0,1-1-.1,2.94,2.94,0,0,1-.88-.34,2.07,2.07,0,0,1-.66-.61,1.74,1.74,0,0,1-.29-.92h1.11a.82.82,0,0,0,.19.51,1.38,1.38,0,0,0,.43.34,2.07,2.07,0,0,0,.55.19,3,3,0,0,0,.57.06,2,2,0,0,0,.92-.19,1.74,1.74,0,0,0,.62-.52,2.15,2.15,0,0,0,.36-.8,4.5,4.5,0,0,0,.11-1v-.44h0a1.86,1.86,0,0,1-.87.92,2.68,2.68,0,0,1-1.23.29,3,3,0,0,1-1.31-.27,2.75,2.75,0,0,1-.94-.73,3.14,3.14,0,0,1-.57-1.08,4.47,4.47,0,0,1-.19-1.31,5.09,5.09,0,0,1,.16-1.23,3.35,3.35,0,0,1,.52-1.14,2.86,2.86,0,0,1,1-.85,3,3,0,0,1,1.47-.33,2.48,2.48,0,0,1,1.17.28,2,2,0,0,1,.83.84h0v-1h1v6.15A3.54,3.54,0,0,1,438.37,346.54Zm-1.41-3a1.83,1.83,0,0,0,.62-.6,2.74,2.74,0,0,0,.34-.84,4.09,4.09,0,0,0,.11-.94,3.68,3.68,0,0,0-.1-.87,2.43,2.43,0,0,0-.33-.77A1.72,1.72,0,0,0,437,339a1.75,1.75,0,0,0-.88-.21,1.9,1.9,0,0,0-.91.2,1.76,1.76,0,0,0-.62.54,2.3,2.3,0,0,0-.35.78,3.82,3.82,0,0,0-.11.92,4.64,4.64,0,0,0,.09.91,2.58,2.58,0,0,0,.31.83,1.76,1.76,0,0,0,.58.6,1.69,1.69,0,0,0,.91.23A1.79,1.79,0,0,0,437,343.52Z" transform="translate(-7.43 -27.66)"/><path class="cls-4" d="M441.79,337.92v1.42h0a3,3,0,0,1,1-1.21,2.48,2.48,0,0,1,1.48-.36v1.17a3.13,3.13,0,0,0-1.13.18,1.79,1.79,0,0,0-.75.53,2.19,2.19,0,0,0-.42.85,4.59,4.59,0,0,0-.13,1.15v3h-1.11v-6.72Z" transform="translate(-7.43 -27.66)"/><path class="cls-4" d="M449.64,344.22a3.05,3.05,0,0,1-1.9.57,3.44,3.44,0,0,1-1.4-.26,2.75,2.75,0,0,1-1-.73,3.1,3.1,0,0,1-.6-1.12,5.38,5.38,0,0,1-.23-1.42,4,4,0,0,1,.23-1.4,3.36,3.36,0,0,1,.66-1.1,3,3,0,0,1,1-.73,3.07,3.07,0,0,1,1.27-.26,2.76,2.76,0,0,1,1.49.37,3,3,0,0,1,.95.94,3.73,3.73,0,0,1,.49,1.25,5.35,5.35,0,0,1,.11,1.29h-5a2.66,2.66,0,0,0,.1.84,1.9,1.9,0,0,0,.38.7,1.86,1.86,0,0,0,.66.49,2.29,2.29,0,0,0,.95.18,1.92,1.92,0,0,0,1.15-.32,1.57,1.57,0,0,0,.59-1h1.09A2.69,2.69,0,0,1,449.64,344.22Zm-.27-4.32a1.9,1.9,0,0,0-.4-.6,1.94,1.94,0,0,0-.6-.4,1.91,1.91,0,0,0-.76-.15,1.94,1.94,0,0,0-.77.15,1.79,1.79,0,0,0-.59.41,2,2,0,0,0-.39.6,2.32,2.32,0,0,0-.17.73h3.86A2.27,2.27,0,0,0,449.37,339.9Z" transform="translate(-7.43 -27.66)"/><path class="cls-4" d="M456.76,344.64v-.91h0a1.62,1.62,0,0,1-.86.81,3.28,3.28,0,0,1-1.29.25,3,3,0,0,1-1.36-.29,2.8,2.8,0,0,1-1-.77,3.33,3.33,0,0,1-.58-1.12,4.59,4.59,0,0,1-.2-1.35,4.77,4.77,0,0,1,.19-1.35,3.19,3.19,0,0,1,.57-1.11,2.76,2.76,0,0,1,1-.75,3.06,3.06,0,0,1,1.35-.28,3.32,3.32,0,0,1,.56.05,2.91,2.91,0,0,1,.6.18,2.52,2.52,0,0,1,.57.33,1.78,1.78,0,0,1,.45.5h0v-3.46h1.1v9.28Zm-4-2.39a2.48,2.48,0,0,0,.38.8,1.85,1.85,0,0,0,.65.56,2,2,0,0,0,.93.21,1.82,1.82,0,0,0,1.59-.8,2.41,2.41,0,0,0,.36-.81,3.92,3.92,0,0,0,0-1.88,2.37,2.37,0,0,0-.37-.81,1.88,1.88,0,0,0-.66-.57,2.06,2.06,0,0,0-1-.21,1.9,1.9,0,0,0-.95.22,1.76,1.76,0,0,0-.62.58,2.53,2.53,0,0,0-.34.83,4.42,4.42,0,0,0-.1,1A3.41,3.41,0,0,0,452.79,342.26Z" transform="translate(-7.43 -27.66)"/><path class="cls-4" d="M459.63,336.71v-1.35h1.1v1.35Zm1.1,1.21v6.72h-1.1v-6.72Z" transform="translate(-7.43 -27.66)"/><path class="cls-4" d="M467.21,344.22a3.05,3.05,0,0,1-1.9.57,3.44,3.44,0,0,1-1.4-.26,2.75,2.75,0,0,1-1-.73,3.1,3.1,0,0,1-.6-1.12,5.38,5.38,0,0,1-.23-1.42,4,4,0,0,1,.23-1.4,3.36,3.36,0,0,1,.66-1.1,3,3,0,0,1,1-.73,3.07,3.07,0,0,1,1.27-.26,2.76,2.76,0,0,1,1.49.37,3,3,0,0,1,.95.94,3.73,3.73,0,0,1,.49,1.25,5.35,5.35,0,0,1,.11,1.29h-5a2.66,2.66,0,0,0,.1.84,1.9,1.9,0,0,0,.38.7,1.86,1.86,0,0,0,.66.49,2.29,2.29,0,0,0,.95.18,1.92,1.92,0,0,0,1.15-.32,1.57,1.57,0,0,0,.59-1h1.09A2.69,2.69,0,0,1,467.21,344.22Zm-.27-4.32a1.9,1.9,0,0,0-.4-.6,1.94,1.94,0,0,0-.6-.4,1.91,1.91,0,0,0-.76-.15,1.94,1.94,0,0,0-.77.15,1.79,1.79,0,0,0-.59.41,2,2,0,0,0-.39.6,2.32,2.32,0,0,0-.17.73h3.86A2.27,2.27,0,0,0,466.95,339.9Z" transform="translate(-7.43 -27.66)"/><path class="cls-4" d="M470.48,337.92V339h0a2.33,2.33,0,0,1,2.18-1.22,2.92,2.92,0,0,1,1.1.18,1.84,1.84,0,0,1,.72.51,1.88,1.88,0,0,1,.38.77,4.12,4.12,0,0,1,.11,1v4.42h-1.11v-4.55a1.33,1.33,0,0,0-.36-1,1.35,1.35,0,0,0-1-.36,2.26,2.26,0,0,0-.88.16,1.66,1.66,0,0,0-.62.44,1.91,1.91,0,0,0-.37.67,2.73,2.73,0,0,0-.12.84v3.8h-1.1v-6.72Z" transform="translate(-7.43 -27.66)"/><path class="cls-4" d="M479.54,337.92v1H478.2v4.17a1.22,1.22,0,0,0,0,.31.31.31,0,0,0,.12.18.54.54,0,0,0,.25.08l.42,0h.51v1h-.84a4,4,0,0,1-.73-.06,1.07,1.07,0,0,1-.49-.21.91.91,0,0,1-.28-.44,2.56,2.56,0,0,1-.09-.75V338.9h-1.14v-1h1.14v-2h1.11v2Z" transform="translate(-7.43 -27.66)"/><path class="cls-4" d="M481.6,343.14a1.17,1.17,0,0,0,.41.4,1.86,1.86,0,0,0,.57.21,3.31,3.31,0,0,0,.66.06,4,4,0,0,0,.55,0,2,2,0,0,0,.53-.14,1,1,0,0,0,.4-.31.82.82,0,0,0,.16-.51.74.74,0,0,0-.33-.65,2.76,2.76,0,0,0-.81-.36q-.49-.14-1.06-.25a5.5,5.5,0,0,1-1.06-.31,2.18,2.18,0,0,1-.81-.57,1.47,1.47,0,0,1-.33-1,1.61,1.61,0,0,1,.23-.87,1.87,1.87,0,0,1,.58-.59,2.71,2.71,0,0,1,.81-.34,3.74,3.74,0,0,1,.89-.11,5.28,5.28,0,0,1,1.05.1,2.43,2.43,0,0,1,.85.34,1.75,1.75,0,0,1,.59.65,2.45,2.45,0,0,1,.26,1h-1.1a1.06,1.06,0,0,0-.53-.88,1.68,1.68,0,0,0-.49-.19,2.5,2.5,0,0,0-.54-.06,3.37,3.37,0,0,0-.5,0,1.72,1.72,0,0,0-.46.14.93.93,0,0,0-.34.26.66.66,0,0,0-.13.42.62.62,0,0,0,.2.47,1.59,1.59,0,0,0,.51.31,4.37,4.37,0,0,0,.7.21l.78.18c.28.06.55.13.81.22a2.67,2.67,0,0,1,.7.34,1.7,1.7,0,0,1,.49.54,1.59,1.59,0,0,1,.19.81,1.87,1.87,0,0,1-.25,1,2,2,0,0,1-.66.65,2.77,2.77,0,0,1-.92.34,5.51,5.51,0,0,1-1,.1,4.78,4.78,0,0,1-1.07-.12,2.61,2.61,0,0,1-.9-.38,2,2,0,0,1-.62-.7,2.42,2.42,0,0,1-.26-1.06h1.1A1.25,1.25,0,0,0,481.6,343.14Z" transform="translate(-7.43 -27.66)"/><line class="cls-5" x1="321.98" y1="142.57" x2="385.13" y2="142.57"/><polygon class="cls-1" points="206.9 321.18 192.31 329.46 177.84 320.97 177.97 304.19 192.56 295.9 207.02 304.4 206.9 321.18"/><line class="cls-1" x1="204.39" y1="305.45" x2="204.39" y2="319.6"/><line class="cls-1" x1="180.17" y1="319.6" x2="192.43" y2="326.68"/><line class="cls-1" x1="192.43" y1="298.37" x2="180.17" y2="305.45"/><line class="cls-1" x1="207.02" y1="304.4" x2="221.53" y2="295.91"/><line class="cls-1" x1="206.9" y1="321.18" x2="221.53" y2="329.46"/><path class="cls-1" d="M229,323.67l9.43,5.34" transform="translate(-7.43 -27.66)"/><path class="cls-1" d="M229,357.22l9.35-5.47" transform="translate(-7.43 -27.66)"/><path class="cls-1" d="M227.56,315.13v8.54" transform="translate(-7.43 -27.66)"/><path class="cls-1" d="M229.91,315.13v8.54" transform="translate(-7.43 -27.66)"/><path class="cls-4" d="M225,308.18a4,4,0,0,1,.73-1.35,3.58,3.58,0,0,1,1.21-.94,4.24,4.24,0,0,1,3.37,0,3.58,3.58,0,0,1,1.21.94,4,4,0,0,1,.73,1.35,5.32,5.32,0,0,1,0,3.18,4,4,0,0,1-.73,1.35,3.51,3.51,0,0,1-1.21.93,4.29,4.29,0,0,1-3.37,0,3.51,3.51,0,0,1-1.21-.93,4,4,0,0,1-.73-1.35,5.32,5.32,0,0,1,0-3.18Zm1,2.8a3.27,3.27,0,0,0,.5,1.07,2.54,2.54,0,0,0,.87.76,2.94,2.94,0,0,0,2.54,0,2.54,2.54,0,0,0,.87-.76,3.27,3.27,0,0,0,.5-1.07,4.66,4.66,0,0,0,0-2.41,3.27,3.27,0,0,0-.5-1.07,2.54,2.54,0,0,0-.87-.76,2.93,2.93,0,0,0-2.54,0,2.54,2.54,0,0,0-.87.76,3.27,3.27,0,0,0-.5,1.07,4.66,4.66,0,0,0,0,2.41Z" transform="translate(-7.43 -27.66)"/><path class="cls-4" d="M225.63,369.44a4,4,0,0,1,.73-1.35,3.58,3.58,0,0,1,1.21-.94,4.24,4.24,0,0,1,3.37,0,3.58,3.58,0,0,1,1.21.94,4,4,0,0,1,.73,1.35,5.32,5.32,0,0,1,0,3.18,4,4,0,0,1-.73,1.35,3.51,3.51,0,0,1-1.21.93,4.29,4.29,0,0,1-3.37,0,3.51,3.51,0,0,1-1.21-.93,4,4,0,0,1-.73-1.35,5.32,5.32,0,0,1,0-3.18Zm1,2.8a3.27,3.27,0,0,0,.5,1.07,2.54,2.54,0,0,0,.87.76,2.94,2.94,0,0,0,2.54,0,2.54,2.54,0,0,0,.87-.76,3.27,3.27,0,0,0,.5-1.07,4.66,4.66,0,0,0,0-2.41,3.27,3.27,0,0,0-.5-1.07,2.54,2.54,0,0,0-.87-.76,2.93,2.93,0,0,0-2.54,0,2.54,2.54,0,0,0-.87.76,3.27,3.27,0,0,0-.5,1.07,4.66,4.66,0,0,0,0,2.41Z" transform="translate(-7.43 -27.66)"/><path class="cls-4" d="M239.8,330.06a4,4,0,0,1,.73-1.35,3.58,3.58,0,0,1,1.21-.94,4.24,4.24,0,0,1,3.37,0,3.58,3.58,0,0,1,1.21.94,4,4,0,0,1,.73,1.35,5.32,5.32,0,0,1,0,3.18,4,4,0,0,1-.73,1.35,3.51,3.51,0,0,1-1.21.93,4.29,4.29,0,0,1-3.37,0,3.51,3.51,0,0,1-1.21-.93,4,4,0,0,1-.73-1.35,5.32,5.32,0,0,1,0-3.18Zm1,2.8a3.27,3.27,0,0,0,.5,1.07,2.54,2.54,0,0,0,.87.76,2.94,2.94,0,0,0,2.54,0,2.54,2.54,0,0,0,.87-.76,3.27,3.27,0,0,0,.5-1.07,4.66,4.66,0,0,0,0-2.41,3.27,3.27,0,0,0-.5-1.07,2.54,2.54,0,0,0-.87-.76,2.93,2.93,0,0,0-2.54,0,2.54,2.54,0,0,0-.87.76,3.27,3.27,0,0,0-.5,1.07,4.66,4.66,0,0,0,0,2.41Z" transform="translate(-7.43 -27.66)"/><path class="cls-4" d="M252.43,327.61a2.66,2.66,0,0,1,1.8.57,2,2,0,0,1,.65,1.55,2.45,2.45,0,0,1-.33,1.29,1.72,1.72,0,0,1-1.07.76v0a1.45,1.45,0,0,1,.57.23,1.24,1.24,0,0,1,.35.38,1.68,1.68,0,0,1,.19.49,5,5,0,0,1,.1.57q0,.29,0,.6a5,5,0,0,0,.05.6,3.82,3.82,0,0,0,.13.56,1.38,1.38,0,0,0,.26.47H254a.66.66,0,0,1-.15-.34,3.13,3.13,0,0,1-.05-.48c0-.18,0-.37,0-.57a3.82,3.82,0,0,0-.07-.6,5.22,5.22,0,0,0-.11-.56,1.32,1.32,0,0,0-.21-.46,1.06,1.06,0,0,0-.38-.32,1.43,1.43,0,0,0-.63-.12H249.7v3.45h-1.08v-8.08Zm.23,3.67a1.57,1.57,0,0,0,.59-.22,1.22,1.22,0,0,0,.41-.44,1.48,1.48,0,0,0,.15-.72,1.45,1.45,0,0,0-.34-1,1.4,1.4,0,0,0-1.1-.39H249.7v2.82h2.24A4.42,4.42,0,0,0,252.65,331.28Z" transform="translate(-7.43 -27.66)"/><path class="cls-4" d="M239.8,348.29a4,4,0,0,1,.73-1.35,3.58,3.58,0,0,1,1.21-.94,4.24,4.24,0,0,1,3.37,0,3.58,3.58,0,0,1,1.21.94,4,4,0,0,1,.73,1.35,5.32,5.32,0,0,1,0,3.18,4,4,0,0,1-.73,1.35,3.51,3.51,0,0,1-1.21.93,4.29,4.29,0,0,1-3.37,0,3.51,3.51,0,0,1-1.21-.93,4,4,0,0,1-.73-1.35,5.32,5.32,0,0,1,0-3.18Zm1,2.8a3.27,3.27,0,0,0,.5,1.07,2.54,2.54,0,0,0,.87.76,2.94,2.94,0,0,0,2.54,0,2.54,2.54,0,0,0,.87-.76,3.27,3.27,0,0,0,.5-1.07,4.66,4.66,0,0,0,0-2.41,3.27,3.27,0,0,0-.5-1.07,2.54,2.54,0,0,0-.87-.76,2.93,2.93,0,0,0-2.54,0,2.54,2.54,0,0,0-.87.76,3.27,3.27,0,0,0-.5,1.07,4.66,4.66,0,0,0,0,2.41Z" transform="translate(-7.43 -27.66)"/><path class="cls-4" d="M252.43,345.83a2.66,2.66,0,0,1,1.8.57,2,2,0,0,1,.65,1.55,2.45,2.45,0,0,1-.33,1.29,1.72,1.72,0,0,1-1.07.76v0a1.45,1.45,0,0,1,.57.23,1.24,1.24,0,0,1,.35.38,1.68,1.68,0,0,1,.19.49,5,5,0,0,1,.1.57q0,.29,0,.6a5,5,0,0,0,.05.6,3.82,3.82,0,0,0,.13.56,1.38,1.38,0,0,0,.26.47H254a.66.66,0,0,1-.15-.34,3.13,3.13,0,0,1-.05-.48c0-.18,0-.37,0-.57a3.82,3.82,0,0,0-.07-.6,5.22,5.22,0,0,0-.11-.56,1.32,1.32,0,0,0-.21-.46,1.06,1.06,0,0,0-.38-.32,1.43,1.43,0,0,0-.63-.12H249.7v3.45h-1.08v-8.08Zm.23,3.67a1.57,1.57,0,0,0,.59-.22,1.22,1.22,0,0,0,.41-.44,1.48,1.48,0,0,0,.15-.72,1.45,1.45,0,0,0-.34-1,1.4,1.4,0,0,0-1.1-.39H249.7v2.82h2.24A4.42,4.42,0,0,0,252.65,349.5Z" transform="translate(-7.43 -27.66)"/><path class="cls-1" d="M227.78,357.22v8.54" transform="translate(-7.43 -27.66)"/><path class="cls-1" d="M230.14,357.22v8.54" transform="translate(-7.43 -27.66)"/><line class="cls-1" x1="298.63" y1="325.39" x2="313.14" y2="316.9"/><line class="cls-1" x1="313.14" y1="316.99" x2="327.75" y2="325.31"/><line class="cls-1" x1="327.82" y1="325.39" x2="342.33" y2="316.9"/><path class="cls-1" d="M320.62,345.19q0-5.25-.06-10.51" transform="translate(-7.43 -27.66)"/><path class="cls-4" d="M321,325.57a2.5,2.5,0,0,0-1.47-.43,2.62,2.62,0,0,0-1.24.27,2.44,2.44,0,0,0-.85.73,3.16,3.16,0,0,0-.49,1,4.65,4.65,0,0,0-.16,1.22,5.21,5.21,0,0,0,.16,1.31,3.12,3.12,0,0,0,.49,1.08,2.43,2.43,0,0,0,.85.73,2.66,2.66,0,0,0,1.25.27,2.4,2.4,0,0,0,.95-.17,2.14,2.14,0,0,0,.71-.49,2.25,2.25,0,0,0,.47-.74,3.11,3.11,0,0,0,.2-.93h1.08a3.68,3.68,0,0,1-1.05,2.38,3.41,3.41,0,0,1-2.45.85,3.9,3.9,0,0,1-1.64-.32,3.22,3.22,0,0,1-1.17-.89,3.83,3.83,0,0,1-.7-1.34,5.72,5.72,0,0,1-.23-1.65,5.4,5.4,0,0,1,.25-1.66,4,4,0,0,1,.73-1.35,3.4,3.4,0,0,1,1.2-.91,3.87,3.87,0,0,1,1.65-.33,4.16,4.16,0,0,1,1.2.17,3.2,3.2,0,0,1,1,.5,2.79,2.79,0,0,1,.74.82,3,3,0,0,1,.38,1.14h-1.08A2,2,0,0,0,321,325.57Z" transform="translate(-7.43 -27.66)"/><path class="cls-4" d="M325.12,324.42v8.08h-1v-8.08Z" transform="translate(-7.43 -27.66)"/><path class="cls-4" d="M310.29,354a11.21,11.21,0,0,1-.59-1.44,10,10,0,0,1-.36-1.5,10.82,10.82,0,0,1,.37-4.87,12.46,12.46,0,0,1,1.37-2.89h.66a10.62,10.62,0,0,0-1.29,3,13.91,13.91,0,0,0-.4,3.38,9.41,9.41,0,0,0,.12,1.47,11.23,11.23,0,0,0,.34,1.5,12.29,12.29,0,0,0,.54,1.45,10,10,0,0,0,.69,1.31h-.66Q310.65,354.75,310.29,354Z" transform="translate(-7.43 -27.66)"/><path class="cls-4" d="M342.53,344.77a11.07,11.07,0,0,1,.59,1.45,10.17,10.17,0,0,1,.36,1.51,10.76,10.76,0,0,1-.37,4.86,12.51,12.51,0,0,1-1.37,2.88h-.65a10.86,10.86,0,0,0,1.27-3,13.82,13.82,0,0,0,.4-3.38,9.06,9.06,0,0,0-.12-1.48,11.69,11.69,0,0,0-.35-1.49,12.7,12.7,0,0,0-.54-1.43q-.31-.7-.67-1.33h.65Q342.18,344.06,342.53,344.77Z" transform="translate(-7.43 -27.66)"/><path class="cls-4" d="M345.39,353.38V354h0a1.38,1.38,0,0,1,1.29-.72,1.74,1.74,0,0,1,.65.11,1.08,1.08,0,0,1,.42.3,1.11,1.11,0,0,1,.23.46,2.45,2.45,0,0,1,.07.59v2.62h-.65v-2.7a.79.79,0,0,0-.22-.59.8.8,0,0,0-.59-.22,1.34,1.34,0,0,0-.52.09,1,1,0,0,0-.37.26,1.13,1.13,0,0,0-.22.4,1.61,1.61,0,0,0-.07.5v2.25h-.65v-4Z" transform="translate(-7.43 -27.66)"/><path class="cls-4" d="M278.41,341.5v.71h-2.29v2.3h-.71v-2.3h-2.29v-.71h2.29v-2.3h.71v2.3Z" transform="translate(-7.43 -27.66)"/><line class="cls-1" x1="267.77" y1="280.87" x2="267.73" y2="263.87"/><polygon class="cls-4" points="267.71 258.22 270.98 266.17 267.73 264.29 264.48 266.19 267.71 258.22"/><line class="cls-1" x1="267.8" y1="168.05" x2="267.76" y2="151.05"/><polygon class="cls-4" points="267.74 145.4 271.02 153.35 267.76 151.47 264.51 153.37 267.74 145.4"/><line class="cls-1" x1="267.74" y1="82.01" x2="267.7" y2="65.01"/><polygon class="cls-4" points="267.68 59.36 270.95 67.31 267.7 65.43 264.45 67.33 267.68 59.36"/><path class="cls-4" d="M393.17,46.08v-1h1.13v-1a1.58,1.58,0,0,1,.47-1.24,2,2,0,0,1,1.38-.42l.36,0a1.94,1.94,0,0,1,.36.08v1a1.39,1.39,0,0,0-.31-.07l-.31,0a1.07,1.07,0,0,0-.62.16.69.69,0,0,0-.22.6v.94h1.3v1h-1.3v5.75h-1.1V46.08Z" transform="translate(-7.43 -27.66)"/><path class="cls-4" d="M397.75,43.9V42.55h1.1V43.9Zm1.1,1.21v6.72h-1.1V45.11Z" transform="translate(-7.43 -27.66)"/><path class="cls-4" d="M401.62,45.11v1.07h0A2.32,2.32,0,0,1,403.83,45a2.9,2.9,0,0,1,1.1.18,1.82,1.82,0,0,1,.72.51,1.88,1.88,0,0,1,.38.77,4.13,4.13,0,0,1,.11,1v4.42H405V47.28a1.33,1.33,0,0,0-.36-1,1.35,1.35,0,0,0-1-.36,2.25,2.25,0,0,0-.88.16,1.65,1.65,0,0,0-.62.44,1.91,1.91,0,0,0-.37.67,2.73,2.73,0,0,0-.12.84v3.8h-1.1V45.11Z" transform="translate(-7.43 -27.66)"/><path class="cls-4" d="M407.87,43.9V42.55H409V43.9Zm1.1,1.21v6.72h-1.1V45.11Z" transform="translate(-7.43 -27.66)"/><path class="cls-4" d="M411.53,50.33a1.18,1.18,0,0,0,.41.4,1.83,1.83,0,0,0,.57.21,3.28,3.28,0,0,0,.66.06,4.08,4.08,0,0,0,.55,0,2,2,0,0,0,.53-.14,1,1,0,0,0,.4-.31.82.82,0,0,0,.16-.51.74.74,0,0,0-.33-.65,2.78,2.78,0,0,0-.81-.36q-.49-.14-1.06-.25a5.43,5.43,0,0,1-1.06-.31,2.19,2.19,0,0,1-.81-.57,1.47,1.47,0,0,1-.33-1,1.61,1.61,0,0,1,.23-.87,1.86,1.86,0,0,1,.58-.59,2.69,2.69,0,0,1,.81-.34,3.74,3.74,0,0,1,.89-.11A5.28,5.28,0,0,1,414,45a2.44,2.44,0,0,1,.85.34,1.76,1.76,0,0,1,.59.65,2.46,2.46,0,0,1,.26,1h-1.1a1.13,1.13,0,0,0-.17-.54,1.11,1.11,0,0,0-.36-.34,1.63,1.63,0,0,0-.49-.19,2.5,2.5,0,0,0-.54-.06,3.24,3.24,0,0,0-.5,0,1.69,1.69,0,0,0-.46.14.93.93,0,0,0-.34.26.65.65,0,0,0-.13.42.62.62,0,0,0,.2.47,1.6,1.6,0,0,0,.51.31,4.52,4.52,0,0,0,.7.21l.78.18a8.22,8.22,0,0,1,.81.22,2.64,2.64,0,0,1,.7.34,1.7,1.7,0,0,1,.49.54,1.59,1.59,0,0,1,.19.81,1.87,1.87,0,0,1-.25,1,2,2,0,0,1-.66.65,2.77,2.77,0,0,1-.92.34,5.47,5.47,0,0,1-1,.1,4.73,4.73,0,0,1-1.07-.12,2.6,2.6,0,0,1-.9-.38,2,2,0,0,1-.62-.7,2.42,2.42,0,0,1-.26-1.06h1.1A1.25,1.25,0,0,0,411.53,50.33Z" transform="translate(-7.43 -27.66)"/><path class="cls-4" d="M418.29,42.55V46.1h0a1.47,1.47,0,0,1,.36-.53,2.06,2.06,0,0,1,.53-.35,2.72,2.72,0,0,1,.61-.2,3.07,3.07,0,0,1,.62-.06,2.9,2.9,0,0,1,1.1.18,1.82,1.82,0,0,1,.72.51,1.88,1.88,0,0,1,.38.77,4.13,4.13,0,0,1,.11,1v4.42h-1.11V47.28a1.33,1.33,0,0,0-.36-1,1.35,1.35,0,0,0-1-.36,2.25,2.25,0,0,0-.88.16,1.65,1.65,0,0,0-.62.44,1.91,1.91,0,0,0-.37.67,2.73,2.73,0,0,0-.12.84v3.8h-1.1V42.55Z" transform="translate(-7.43 -27.66)"/><path class="cls-4" d="M429.17,51.4a3,3,0,0,1-1.9.57,3.45,3.45,0,0,1-1.4-.26,2.75,2.75,0,0,1-1-.73,3.1,3.1,0,0,1-.6-1.12,5.38,5.38,0,0,1-.23-1.42,4,4,0,0,1,.23-1.4,3.37,3.37,0,0,1,.66-1.1,3,3,0,0,1,1-.73,3.07,3.07,0,0,1,1.27-.26,2.76,2.76,0,0,1,1.49.37,2.94,2.94,0,0,1,.95.94,3.72,3.72,0,0,1,.49,1.25,5.35,5.35,0,0,1,.11,1.29h-5a2.66,2.66,0,0,0,.1.84,1.9,1.9,0,0,0,.38.7,1.85,1.85,0,0,0,.66.49,2.28,2.28,0,0,0,.95.18,1.91,1.91,0,0,0,1.15-.33,1.57,1.57,0,0,0,.59-1h1.09A2.68,2.68,0,0,1,429.17,51.4Zm-.27-4.32a1.89,1.89,0,0,0-.4-.6,1.92,1.92,0,0,0-.6-.4,1.89,1.89,0,0,0-.76-.15,1.93,1.93,0,0,0-.77.15,1.78,1.78,0,0,0-.59.41,2,2,0,0,0-.39.6,2.32,2.32,0,0,0-.17.73h3.86A2.27,2.27,0,0,0,428.91,47.08Z" transform="translate(-7.43 -27.66)"/><path class="cls-4" d="M436.3,51.83v-.91h0a1.62,1.62,0,0,1-.86.81,3.27,3.27,0,0,1-1.29.25,3,3,0,0,1-1.36-.29,2.79,2.79,0,0,1-1-.77,3.33,3.33,0,0,1-.58-1.12,4.6,4.6,0,0,1-.2-1.35,4.77,4.77,0,0,1,.19-1.35,3.18,3.18,0,0,1,.57-1.11,2.77,2.77,0,0,1,1-.75A3.06,3.06,0,0,1,434.1,45a3.32,3.32,0,0,1,.56.05,2.88,2.88,0,0,1,.6.18,2.56,2.56,0,0,1,.57.32,1.8,1.8,0,0,1,.45.5h0V42.55h1.1v9.28Zm-4-2.39a2.47,2.47,0,0,0,.38.8,1.85,1.85,0,0,0,.65.56,2,2,0,0,0,.93.21,1.82,1.82,0,0,0,1.59-.8,2.4,2.4,0,0,0,.36-.81,3.92,3.92,0,0,0,0-1.88,2.37,2.37,0,0,0-.37-.81,1.89,1.89,0,0,0-.66-.57,2,2,0,0,0-1-.21,1.9,1.9,0,0,0-.95.22,1.77,1.77,0,0,0-.62.58,2.54,2.54,0,0,0-.34.83,4.42,4.42,0,0,0-.1,1A3.41,3.41,0,0,0,432.33,49.44Z" transform="translate(-7.43 -27.66)"/><path class="cls-4" d="M443.86,45.11V46h0a1.65,1.65,0,0,1,.86-.81A3.2,3.2,0,0,1,446,45a3,3,0,0,1,1.36.29,2.77,2.77,0,0,1,1,.77,3.42,3.42,0,0,1,.58,1.12,4.6,4.6,0,0,1,.2,1.35,4.77,4.77,0,0,1-.19,1.35,3.19,3.19,0,0,1-.57,1.11,2.7,2.7,0,0,1-1,.75,3.13,3.13,0,0,1-1.35.27,3.33,3.33,0,0,1-.55-.05,3.07,3.07,0,0,1-.6-.17,2.35,2.35,0,0,1-.57-.32,1.78,1.78,0,0,1-.45-.5h0v3.46h-1.1V45.11Zm4,2.39a2.47,2.47,0,0,0-.38-.8,1.85,1.85,0,0,0-.65-.56,2,2,0,0,0-.93-.21,1.82,1.82,0,0,0-1.59.8,2.4,2.4,0,0,0-.36.81,3.92,3.92,0,0,0,0,1.88,2.37,2.37,0,0,0,.37.81,1.89,1.89,0,0,0,.66.57,2,2,0,0,0,1,.21,1.89,1.89,0,0,0,1-.22,1.79,1.79,0,0,0,.62-.58,2.54,2.54,0,0,0,.34-.83,4.42,4.42,0,0,0,.1-1A3.45,3.45,0,0,0,447.84,47.49Z" transform="translate(-7.43 -27.66)"/><path class="cls-4" d="M451.43,45.11v1.42h0a3,3,0,0,1,1-1.21,2.49,2.49,0,0,1,1.48-.36v1.17a3.12,3.12,0,0,0-1.13.18,1.78,1.78,0,0,0-.75.53,2.19,2.19,0,0,0-.42.85,4.59,4.59,0,0,0-.13,1.15v3h-1.11V45.11Z" transform="translate(-7.43 -27.66)"/><path class="cls-4" d="M454.37,47.09A3.14,3.14,0,0,1,455,46a2.94,2.94,0,0,1,1-.75,3.76,3.76,0,0,1,2.81,0,3,3,0,0,1,1,.75,3.14,3.14,0,0,1,.62,1.12,4.47,4.47,0,0,1,.21,1.38,4.41,4.41,0,0,1-.21,1.38,3.15,3.15,0,0,1-.62,1.11,2.88,2.88,0,0,1-1,.74,3.85,3.85,0,0,1-2.81,0,2.87,2.87,0,0,1-1-.74,3.15,3.15,0,0,1-.62-1.11,4.41,4.41,0,0,1-.21-1.38A4.47,4.47,0,0,1,454.37,47.09Zm1.13,2.47a2.28,2.28,0,0,0,.45.79,2,2,0,0,0,.67.49,2,2,0,0,0,1.63,0,2,2,0,0,0,.67-.49,2.28,2.28,0,0,0,.45-.79,3.69,3.69,0,0,0,0-2.17,2.34,2.34,0,0,0-.45-.8,1.91,1.91,0,0,0-.67-.49,2,2,0,0,0-1.62,0,1.91,1.91,0,0,0-.67.49,2.34,2.34,0,0,0-.45.8,3.69,3.69,0,0,0,0,2.17Z" transform="translate(-7.43 -27.66)"/><path class="cls-4" d="M466.89,51.83v-.91h0a1.62,1.62,0,0,1-.86.81,3.27,3.27,0,0,1-1.29.25,3,3,0,0,1-1.36-.29,2.79,2.79,0,0,1-1-.77,3.33,3.33,0,0,1-.58-1.12,4.6,4.6,0,0,1-.2-1.35,4.77,4.77,0,0,1,.19-1.35,3.18,3.18,0,0,1,.57-1.11,2.77,2.77,0,0,1,1-.75,3.06,3.06,0,0,1,1.35-.28,3.32,3.32,0,0,1,.56.05,2.88,2.88,0,0,1,.6.18,2.56,2.56,0,0,1,.57.32,1.8,1.8,0,0,1,.45.5h0V42.55H468v9.28Zm-4-2.39a2.47,2.47,0,0,0,.38.8,1.85,1.85,0,0,0,.65.56,2,2,0,0,0,.93.21,1.82,1.82,0,0,0,1.59-.8,2.4,2.4,0,0,0,.36-.81,3.92,3.92,0,0,0,0-1.88,2.37,2.37,0,0,0-.37-.81,1.89,1.89,0,0,0-.66-.57,2,2,0,0,0-1-.21,1.9,1.9,0,0,0-.95.22,1.77,1.77,0,0,0-.62.58,2.54,2.54,0,0,0-.34.83,4.42,4.42,0,0,0-.1,1A3.41,3.41,0,0,0,462.92,49.44Z" transform="translate(-7.43 -27.66)"/><path class="cls-4" d="M474.22,51.83V50.76h0a2.26,2.26,0,0,1-.9.92A2.69,2.69,0,0,1,472,52a3,3,0,0,1-1.11-.18,1.75,1.75,0,0,1-.71-.5,1.87,1.87,0,0,1-.38-.77,4.18,4.18,0,0,1-.11-1V45.11h1.1v4.55a1.34,1.34,0,0,0,.36,1,1.35,1.35,0,0,0,1,.36,2.25,2.25,0,0,0,.88-.16,1.64,1.64,0,0,0,.62-.44,1.91,1.91,0,0,0,.37-.67,2.73,2.73,0,0,0,.12-.84v-3.8h1.11v6.72Z" transform="translate(-7.43 -27.66)"/><path class="cls-4" d="M480.94,46.28a1.67,1.67,0,0,0-1.12-.35,2.06,2.06,0,0,0-1,.22,1.78,1.78,0,0,0-.64.58,2.45,2.45,0,0,0-.34.84,4.57,4.57,0,0,0-.1,1,3.75,3.75,0,0,0,.11.91,2.44,2.44,0,0,0,.34.79,1.74,1.74,0,0,0,.61.55,1.83,1.83,0,0,0,.9.21,1.81,1.81,0,0,0,1.28-.43,1.94,1.94,0,0,0,.57-1.21h1.13a3.1,3.1,0,0,1-.93,1.92,2.92,2.92,0,0,1-2,.68,3.5,3.5,0,0,1-1.36-.25,2.63,2.63,0,0,1-1-.7,3,3,0,0,1-.6-1.09,4.51,4.51,0,0,1-.2-1.38,4.94,4.94,0,0,1,.2-1.41,3.26,3.26,0,0,1,.59-1.14,2.78,2.78,0,0,1,1-.77,3.26,3.26,0,0,1,1.39-.28,4.07,4.07,0,0,1,1.07.14,2.63,2.63,0,0,1,.88.42,2.31,2.31,0,0,1,.63.72,2.66,2.66,0,0,1,.31,1h-1.14A1.68,1.68,0,0,0,480.94,46.28Z" transform="translate(-7.43 -27.66)"/><path class="cls-4" d="M486.78,45.11v1h-1.34v4.17a1.21,1.21,0,0,0,0,.31.32.32,0,0,0,.12.18.54.54,0,0,0,.25.08l.42,0h.51v1h-.84a4,4,0,0,1-.73-.06,1.07,1.07,0,0,1-.49-.21.92.92,0,0,1-.28-.44,2.56,2.56,0,0,1-.09-.75V46.08h-1.14v-1h1.14v-2h1.11v2Z" transform="translate(-7.43 -27.66)"/><path class="cls-4" d="M278.41,371.7v.71h-2.29v2.3h-.71v-2.3h-2.29v-.71h2.29v-2.3h.71v2.3Z" transform="translate(-7.43 -27.66)"/><path class="cls-4" d="M285.29,370.89a2.52,2.52,0,0,1,.5-.9,2.38,2.38,0,0,1,.83-.6,3,3,0,0,1,2.27,0,2.41,2.41,0,0,1,.82.6,2.53,2.53,0,0,1,.5.9,3.6,3.6,0,0,1,.17,1.12,3.55,3.55,0,0,1-.17,1.11,2.52,2.52,0,0,1-.5.9,2.33,2.33,0,0,1-.82.6,3.11,3.11,0,0,1-2.27,0,2.31,2.31,0,0,1-.83-.6,2.51,2.51,0,0,1-.5-.9,3.55,3.55,0,0,1-.17-1.11A3.6,3.6,0,0,1,285.29,370.89Zm.91,2a1.83,1.83,0,0,0,.36.64,1.57,1.57,0,0,0,.54.39,1.64,1.64,0,0,0,1.31,0,1.57,1.57,0,0,0,.54-.39,1.83,1.83,0,0,0,.36-.64,3,3,0,0,0,0-1.75,1.91,1.91,0,0,0-.36-.65,1.55,1.55,0,0,0-.54-.4,1.64,1.64,0,0,0-1.31,0,1.55,1.55,0,0,0-.54.4,1.91,1.91,0,0,0-.36.65,3,3,0,0,0,0,1.75Z" transform="translate(-7.43 -27.66)"/><path class="cls-4" d="M293.76,369.29v.79h-1.08v3.37a1,1,0,0,0,0,.25.25.25,0,0,0,.1.15.44.44,0,0,0,.2.07l.34,0h.41v.79h-.68a3.22,3.22,0,0,1-.59,0,.88.88,0,0,1-.4-.17.74.74,0,0,1-.23-.36,2,2,0,0,1-.07-.61v-3.45h-.92v-.79h.92v-1.63h.89v1.63Z" transform="translate(-7.43 -27.66)"/><path class="cls-4" d="M295.64,367.22v2.87h0a1.18,1.18,0,0,1,.29-.42,1.65,1.65,0,0,1,.42-.28,2.21,2.21,0,0,1,.49-.16,2.47,2.47,0,0,1,.5-.05,2.36,2.36,0,0,1,.89.15,1.47,1.47,0,0,1,.58.41,1.53,1.53,0,0,1,.31.62,3.41,3.41,0,0,1,.09.8v3.57h-.89V371a1.08,1.08,0,0,0-.29-.8,1.1,1.1,0,0,0-.81-.29,1.82,1.82,0,0,0-.71.13,1.33,1.33,0,0,0-.5.36,1.53,1.53,0,0,0-.3.54,2.2,2.2,0,0,0-.1.68v3.06h-.89v-7.49Z" transform="translate(-7.43 -27.66)"/><path class="cls-4" d="M304.42,374.37a2.46,2.46,0,0,1-1.53.46,2.77,2.77,0,0,1-1.13-.21,2.23,2.23,0,0,1-.8-.59,2.48,2.48,0,0,1-.49-.9,4.33,4.33,0,0,1-.18-1.14,3.26,3.26,0,0,1,.19-1.13A2.71,2.71,0,0,1,301,370a2.42,2.42,0,0,1,.81-.59,2.47,2.47,0,0,1,1-.21,2.23,2.23,0,0,1,1.2.3,2.38,2.38,0,0,1,.77.76,3,3,0,0,1,.4,1,4.3,4.3,0,0,1,.09,1h-4.06a2.14,2.14,0,0,0,.08.68,1.52,1.52,0,0,0,.3.57,1.5,1.5,0,0,0,.54.39,1.85,1.85,0,0,0,.77.15,1.54,1.54,0,0,0,.93-.26,1.27,1.27,0,0,0,.48-.8h.88A2.17,2.17,0,0,1,304.42,374.37Zm-.22-3.48a1.51,1.51,0,0,0-.81-.81,1.53,1.53,0,0,0-.61-.12,1.56,1.56,0,0,0-.62.12,1.44,1.44,0,0,0-.48.33,1.58,1.58,0,0,0-.31.49,1.84,1.84,0,0,0-.14.59h3.12A1.8,1.8,0,0,0,304.21,370.88Z" transform="translate(-7.43 -27.66)"/><path class="cls-4" d="M307,369.29v1.14h0a2.42,2.42,0,0,1,.8-1,2,2,0,0,1,1.2-.29v.95a2.53,2.53,0,0,0-.91.15,1.44,1.44,0,0,0-.61.43,1.79,1.79,0,0,0-.34.69,3.74,3.74,0,0,0-.1.93v2.41h-.89v-5.43Z" transform="translate(-7.43 -27.66)"/><path class="cls-4" d="M315.87,370.23a1.35,1.35,0,0,0-.9-.28,1.66,1.66,0,0,0-.81.18,1.43,1.43,0,0,0-.52.47,2,2,0,0,0-.28.68,3.71,3.71,0,0,0-.08.79,3,3,0,0,0,.09.73,2,2,0,0,0,.28.63,1.4,1.4,0,0,0,.49.45,1.47,1.47,0,0,0,.72.17,1.46,1.46,0,0,0,1-.35,1.57,1.57,0,0,0,.46-1h.91a2.49,2.49,0,0,1-.75,1.55,2.35,2.35,0,0,1-1.64.55,2.83,2.83,0,0,1-1.1-.2,2.12,2.12,0,0,1-.8-.57,2.44,2.44,0,0,1-.48-.88,3.65,3.65,0,0,1-.16-1.12,4,4,0,0,1,.16-1.14A2.62,2.62,0,0,1,313,370a2.25,2.25,0,0,1,.8-.62,2.64,2.64,0,0,1,1.12-.23,3.28,3.28,0,0,1,.87.11,2.1,2.1,0,0,1,.71.34,1.86,1.86,0,0,1,.51.58,2.15,2.15,0,0,1,.25.83h-.92A1.36,1.36,0,0,0,315.87,370.23Z" transform="translate(-7.43 -27.66)"/><path class="cls-4" d="M319.15,367.22v2.87h0a1.18,1.18,0,0,1,.29-.42,1.65,1.65,0,0,1,.42-.28,2.21,2.21,0,0,1,.49-.16,2.47,2.47,0,0,1,.5-.05,2.36,2.36,0,0,1,.89.15,1.47,1.47,0,0,1,.58.41,1.53,1.53,0,0,1,.31.62,3.41,3.41,0,0,1,.09.8v3.57h-.89V371a1.08,1.08,0,0,0-.29-.8,1.1,1.1,0,0,0-.81-.29,1.82,1.82,0,0,0-.71.13,1.33,1.33,0,0,0-.5.36,1.53,1.53,0,0,0-.3.54,2.2,2.2,0,0,0-.1.68v3.06h-.89v-7.49Z" transform="translate(-7.43 -27.66)"/><path class="cls-4" d="M327.94,374.37a2.46,2.46,0,0,1-1.53.46,2.77,2.77,0,0,1-1.13-.21,2.23,2.23,0,0,1-.8-.59,2.48,2.48,0,0,1-.49-.9,4.33,4.33,0,0,1-.18-1.14,3.26,3.26,0,0,1,.19-1.13,2.71,2.71,0,0,1,.53-.89,2.42,2.42,0,0,1,.81-.59,2.47,2.47,0,0,1,1-.21,2.23,2.23,0,0,1,1.2.3,2.38,2.38,0,0,1,.77.76,3,3,0,0,1,.4,1,4.3,4.3,0,0,1,.09,1h-4.06a2.14,2.14,0,0,0,.08.68,1.52,1.52,0,0,0,.3.57,1.5,1.5,0,0,0,.54.39,1.85,1.85,0,0,0,.77.15,1.54,1.54,0,0,0,.93-.26,1.27,1.27,0,0,0,.48-.8h.88A2.17,2.17,0,0,1,327.94,374.37Zm-.22-3.48a1.51,1.51,0,0,0-.81-.81,1.53,1.53,0,0,0-.61-.12,1.56,1.56,0,0,0-.62.12,1.44,1.44,0,0,0-.48.33,1.58,1.58,0,0,0-.31.49,1.84,1.84,0,0,0-.14.59h3.12A1.8,1.8,0,0,0,327.72,370.88Z" transform="translate(-7.43 -27.66)"/><path class="cls-4" d="M330.57,369.29v.8h0a2.11,2.11,0,0,1,2.67-.71,1.17,1.17,0,0,1,.58.71,1.89,1.89,0,0,1,.72-.68,2,2,0,0,1,1-.24,2.84,2.84,0,0,1,.74.09,1.54,1.54,0,0,1,.57.28,1.26,1.26,0,0,1,.37.49,1.78,1.78,0,0,1,.13.72v4h-.89v-3.56a2.49,2.49,0,0,0,0-.47,1,1,0,0,0-.16-.38.79.79,0,0,0-.32-.26,1.28,1.28,0,0,0-.53-.09,1.4,1.4,0,0,0-1,.38,1.36,1.36,0,0,0-.38,1v3.38h-.89v-3.56a2.32,2.32,0,0,0,0-.48,1,1,0,0,0-.16-.38.75.75,0,0,0-.31-.25,1.19,1.19,0,0,0-.5-.09,1.32,1.32,0,0,0-.67.16,1.5,1.5,0,0,0-.7.83,1.29,1.29,0,0,0-.08.39v3.38h-.89v-5.43Z" transform="translate(-7.43 -27.66)"/><path class="cls-4" d="M338.74,368.31v-1.09h.89v1.09Zm.89,1v5.43h-.89v-5.43Z" transform="translate(-7.43 -27.66)"/><path class="cls-4" d="M344.26,370.23a1.35,1.35,0,0,0-.9-.28,1.66,1.66,0,0,0-.81.18,1.43,1.43,0,0,0-.52.47,2,2,0,0,0-.28.68,3.71,3.71,0,0,0-.08.79,3,3,0,0,0,.09.73,2,2,0,0,0,.28.63,1.4,1.4,0,0,0,.49.45,1.47,1.47,0,0,0,.72.17,1.46,1.46,0,0,0,1-.35,1.57,1.57,0,0,0,.46-1h.91a2.49,2.49,0,0,1-.75,1.55,2.35,2.35,0,0,1-1.64.55,2.83,2.83,0,0,1-1.1-.2,2.12,2.12,0,0,1-.8-.57,2.44,2.44,0,0,1-.48-.88,3.65,3.65,0,0,1-.16-1.12,4,4,0,0,1,.16-1.14,2.62,2.62,0,0,1,.48-.92,2.25,2.25,0,0,1,.8-.62,2.64,2.64,0,0,1,1.12-.23,3.28,3.28,0,0,1,.87.11,2.1,2.1,0,0,1,.71.34,1.86,1.86,0,0,1,.51.58,2.15,2.15,0,0,1,.25.83h-.92A1.36,1.36,0,0,0,344.26,370.23Z" transform="translate(-7.43 -27.66)"/><path class="cls-4" d="M351.45,374.69a1.26,1.26,0,0,1-.64.14.76.76,0,0,1-.55-.19.84.84,0,0,1-.21-.63,2.13,2.13,0,0,1-.86.63,3,3,0,0,1-1.75.11,1.63,1.63,0,0,1-.57-.26,1.26,1.26,0,0,1-.38-.47,1.57,1.57,0,0,1-.14-.7,1.6,1.6,0,0,1,.16-.76,1.38,1.38,0,0,1,.41-.48,1.93,1.93,0,0,1,.59-.28q.33-.09.68-.16c.25,0,.48-.08.7-.11a3.82,3.82,0,0,0,.58-.1,1,1,0,0,0,.4-.2.49.49,0,0,0,.15-.38.88.88,0,0,0-.11-.47.75.75,0,0,0-.28-.27,1.13,1.13,0,0,0-.39-.13,2.87,2.87,0,0,0-.43,0,1.89,1.89,0,0,0-.94.22.91.91,0,0,0-.41.81h-.89a1.92,1.92,0,0,1,.21-.85,1.6,1.6,0,0,1,.5-.56,2.12,2.12,0,0,1,.72-.31,3.81,3.81,0,0,1,.87-.09,5.05,5.05,0,0,1,.73.05,1.92,1.92,0,0,1,.66.21,1.26,1.26,0,0,1,.47.46,1.46,1.46,0,0,1,.18.76v2.79a2.09,2.09,0,0,0,0,.46c0,.1.11.15.25.15a1.06,1.06,0,0,0,.27,0ZM350,371.91a1.11,1.11,0,0,1-.44.18l-.57.09-.6.08a2.23,2.23,0,0,0-.55.15,1,1,0,0,0-.39.3.83.83,0,0,0-.15.53.72.72,0,0,0,.09.37.75.75,0,0,0,.23.25,1,1,0,0,0,.33.14,1.88,1.88,0,0,0,.4,0,2.12,2.12,0,0,0,.75-.12,1.59,1.59,0,0,0,.51-.3,1.21,1.21,0,0,0,.29-.4,1,1,0,0,0,.09-.4Z" transform="translate(-7.43 -27.66)"/><path class="cls-4" d="M353.23,367.22v7.49h-.89v-7.49Z" transform="translate(-7.43 -27.66)"/><path class="cls-4" d="M355.29,373.5a.94.94,0,0,0,.33.33,1.47,1.47,0,0,0,.46.17,2.62,2.62,0,0,0,.53.05l.44,0a1.66,1.66,0,0,0,.42-.12.8.8,0,0,0,.32-.25.66.66,0,0,0,.13-.41.59.59,0,0,0-.26-.53,2.24,2.24,0,0,0-.66-.29q-.39-.11-.86-.2a4.43,4.43,0,0,1-.85-.25,1.76,1.76,0,0,1-.66-.46,1.19,1.19,0,0,1-.26-.82,1.3,1.3,0,0,1,.18-.7,1.52,1.52,0,0,1,.47-.48,2.18,2.18,0,0,1,.65-.27,3,3,0,0,1,.72-.09,4.27,4.27,0,0,1,.85.08,2,2,0,0,1,.69.27,1.41,1.41,0,0,1,.48.53,2,2,0,0,1,.21.82h-.89a.9.9,0,0,0-.14-.44.89.89,0,0,0-.29-.28,1.31,1.31,0,0,0-.39-.15,2,2,0,0,0-.44,0,2.58,2.58,0,0,0-.4,0,1.37,1.37,0,0,0-.37.11.76.76,0,0,0-.27.21.53.53,0,0,0-.11.34.5.5,0,0,0,.16.38,1.3,1.3,0,0,0,.41.25,3.69,3.69,0,0,0,.57.17l.63.14q.34.07.66.18a2.14,2.14,0,0,1,.57.28,1.35,1.35,0,0,1,.4.44,1.28,1.28,0,0,1,.15.65,1.51,1.51,0,0,1-.21.82,1.6,1.6,0,0,1-.54.52,2.25,2.25,0,0,1-.75.28,4.47,4.47,0,0,1-.82.08,3.79,3.79,0,0,1-.86-.09,2.1,2.1,0,0,1-.72-.31,1.57,1.57,0,0,1-.5-.57,2,2,0,0,1-.21-.86h.89A1,1,0,0,0,355.29,373.5Z" transform="translate(-7.43 -27.66)"/></svg>